<svg width="163" height="349" viewBox="0 0 163 349" fill="none" xmlns="http://www.w3.org/2000/svg">
<path d="M84.2178 70.9206C85.0136 70.0413 85.8096 69.1619 86.6056 68.2826L86.9615 68.3547C86.8998 69.6781 86.8382 71.0016 86.763 72.618C88.093 71.2913 87.3644 69.5989 88.1877 68.22L88.5632 69.7962C89.1994 69.4178 89.8071 68.9933 90.3813 68.5262C90.9226 67.9336 91.4227 67.3046 91.8779 66.6436L91.7142 69.5436C92.1258 68.3236 93.0083 68.3543 93.9532 68.4881C94.902 68.6224 95.8505 68.7663 96.8032 68.8632C98.6585 69.0518 99.1074 68.5685 98.9111 66.3532L101.411 68.2838L101.579 68.165C101.269 67.7089 100.963 67.2491 100.646 66.7976C99.5681 65.2613 99.7203 64.4916 101.664 63.1038C101.445 64.3703 101.274 65.3615 101.045 66.6849C101.824 65.9272 102.454 65.3978 102.985 64.7828C105.27 62.1362 106.117 58.8894 106.68 55.5575C107.291 51.9382 107.855 48.3089 108.336 44.6703C108.445 43.4769 108.427 42.2752 108.281 41.0857C108.14 39.4257 108.325 38.9936 109.751 38.2706C110.01 38.1666 110.243 38.0058 110.431 37.8C110.568 37.5396 110.665 37.26 110.719 36.9708C110.449 36.8872 110.169 36.8393 109.887 36.8283C109.617 36.8972 109.354 36.9896 109.1 37.1045C108.252 37.3386 107.692 37.319 107.582 36.1456C107.355 33.0457 106.969 29.9595 106.425 26.8992C105.834 24.5072 105.087 22.1565 104.188 19.8622C104.12 19.6628 103.705 19.547 103.43 19.4613C103.032 19.3375 102.615 19.2767 102.108 19.1682C103.053 18.3329 102.86 17.9238 101.054 16.8046L101.638 17.9656L101.459 18.2118C101.138 18.062 100.841 17.865 100.578 17.6275C99.6651 16.6 98.3989 15.9538 97.0312 15.8175C96.8327 15.8128 96.6354 15.8504 96.4525 15.9278C96.2696 16.0052 96.1053 16.1206 95.9705 16.2664C95.3143 17.0187 94.452 17.562 93.4902 17.8293C92.5285 18.0965 91.5094 18.0759 90.5593 17.7699C90.3398 17.7563 90.12 17.7895 89.9145 17.8675C89.7089 17.9454 89.5223 18.0663 89.3671 18.222C88.996 18.57 88.5401 18.8143 88.0449 18.9307C87.5497 19.0471 87.0326 19.0313 86.5455 18.885C84.8343 18.5562 83.0834 18.4872 81.3518 18.6804C79.3337 18.9686 77.2776 18.8302 75.3164 18.274C74.6135 18.0124 73.8404 18.0104 73.1362 18.2683C72.432 18.5262 71.8431 19.0271 71.4755 19.6807C70.13 21.9263 69.0492 24.3307 67.8723 26.676C67.7937 26.8328 67.7697 27.1828 67.8447 27.226C68.8689 27.8131 68.2818 28.6591 68.1593 29.3671C67.8193 31.3328 67.4251 33.2888 66.9768 35.2352C66.786 35.79 66.5345 36.322 66.2268 36.8215C66.224 37.1515 66.2212 37.4815 66.2184 37.8115C67.0184 41.7995 66.1356 45.7093 65.8452 49.6466L65.5111 49.6651C65.1641 47.3797 64.8324 45.0917 64.4655 42.8095C64.1406 40.7886 64.2055 38.6195 62.4185 37.1216L62.3385 37.0396C62.0106 36.6896 61.6802 36.3421 61.3552 35.9896C60.8864 35.5301 60.545 34.9568 60.3644 34.3257C60.1839 33.6946 60.1703 33.0275 60.3252 32.3896C61.0952 27.6171 62.3213 22.9295 63.9867 18.3912C66.6497 11.8643 71.2107 6.28694 77.0791 2.3812C77.6148 2.03808 78.2096 1.79759 78.8333 1.67201C81.8578 0.993606 84.7843 -0.271589 87.9822 0.0520105C89.0122 0.156211 90.031 0.363609 91.0605 0.468209C96.3005 1.00021 99.4059 4.8943 103.024 7.99951C104.016 8.90323 105.112 9.68487 106.29 10.3277C107.636 10.9454 108.767 11.9501 109.539 13.2137C111.656 16.9873 113.066 21.1157 113.7 25.3958C114.55 30.2209 114.925 35.0749 113.763 39.9118C113.525 40.9056 113.452 42.0701 112.016 42.7264C112.632 38.3403 113.828 34.1428 112.455 29.7024C111.952 33.1624 111.527 36.4283 110.995 39.6769C109.485 47.9688 107.411 56.1481 104.789 64.158C103.871 67.6274 103.134 71.1422 102.58 74.688C102.563 75.0309 102.681 75.3669 102.91 75.6229C104.156 77.0687 105.583 78.3799 106.68 79.9276C108.265 82.4067 110.737 84.1874 113.591 84.9064C119.759 86.3839 125.211 89.5499 130.786 92.4164C133.674 94.0501 136.654 95.514 139.712 96.8008C144.543 98.6062 146.562 102.116 147.169 106.966C147.937 113.101 148.893 119.215 149.854 125.324C150.821 131.475 151.892 137.61 152.922 143.752C152.963 144.028 153.03 144.3 153.123 144.563C154.827 149.103 155.501 153.965 155.097 158.797C154.974 159.997 155.294 161.201 155.996 162.183C158.035 165.054 158.043 168.489 158.721 171.758C159.502 175.529 158.756 179.133 158.131 182.795C158.01 183.731 158.119 184.682 158.449 185.567C159.041 187.26 159.806 188.897 160.548 190.534C160.883 191.133 161.072 191.802 161.099 192.488C161.127 193.173 160.992 193.856 160.707 194.479C159.394 196.89 159.736 199.356 159.851 201.917C160.019 205.657 159.847 209.414 159.764 213.162C159.722 215.078 159.508 216.991 159.479 218.907C159.533 219.542 159.707 220.161 159.991 220.732C160.588 221.93 160.692 223.313 160.281 224.587C158.802 228.302 159.267 231.948 160.241 235.695C161.542 240.692 162.134 245.847 162 251.008C161.981 252.885 161.804 254.757 161.47 256.604C161.363 257.036 161.168 257.441 160.896 257.792C160.624 258.144 160.281 258.435 159.89 258.647C158.135 259.39 156.31 259.954 154.442 260.33C153.923 260.355 153.426 260.548 153.026 260.879C152.625 261.209 152.341 261.66 152.217 262.165C151.177 265.428 149.213 268.32 146.563 270.49C145.884 270.998 145.32 271.643 144.906 272.383C144.492 273.124 144.238 273.942 144.159 274.786C143.385 282.919 140.565 290.562 138.439 298.375C136.353 306.041 134.334 313.731 132.535 321.468C132.014 324.456 131.691 327.476 131.569 330.507C131.107 335.357 130.67 340.209 130.209 345.059C130.111 346.089 129.953 347.113 129.823 348.14H86.3781C86.1174 345.658 86.5866 343.154 87.7281 340.935C89.1323 338.043 89.4923 334.755 88.7471 331.628C88.1711 329.295 87.7244 327.072 85.5927 325.555C85.0099 325.117 84.5506 324.535 84.2592 323.866C83.9679 323.198 83.8545 322.465 83.9302 321.74C84.0477 319.592 84.3062 317.452 84.534 315.311C84.84 313.834 84.5557 312.295 83.742 311.025C83.207 312.076 82.8296 313.199 82.622 314.359C82.4515 315.697 82.6156 317.074 82.562 318.431C82.4772 320.588 82.1388 322.706 80.3839 324.2C78.6704 325.778 77.5015 327.859 77.045 330.143C75.445 336.19 74.5489 342.449 71.7364 348.14H33.4394C33.6801 346.327 33.8753 344.813 34.0839 343.301C34.1985 342.471 34.3294 341.643 34.4647 340.816C34.6171 339.997 34.4747 339.151 34.0629 338.428C33.7669 337.7 33.7154 336.896 33.9162 336.136C34.3962 333.912 34.9773 331.708 35.6014 329.519C35.7709 329.117 35.809 328.671 35.7103 328.246C35.6115 327.821 35.3809 327.438 35.0514 327.152C34.3178 326.569 33.7958 325.762 33.5656 324.853C33.3354 323.945 33.4096 322.987 33.777 322.125C35.3947 318.424 34.6213 314.809 34.007 311.095C33.017 305.109 32.3061 299.076 31.3127 293.09C30.4538 288.778 30.0727 284.384 30.1764 279.987C30.3489 278.237 30.4116 276.478 30.364 274.72C30.194 272.346 29.7171 269.996 29.4489 267.627C29.3735 267.078 29.5016 266.521 29.8089 266.06C31.1839 264.394 32.6464 262.803 34.1902 261.292C35.1206 260.481 36.1571 259.8 37.2712 259.268C38.1584 258.8 38.6498 258.308 38.3821 257.229C38.2765 256.513 38.2321 255.79 38.2492 255.066C37.3863 255.259 36.5368 255.507 35.7063 255.81C32.7587 257.176 30.0969 259.089 27.8623 261.447C27.5898 261.685 27.4064 262.01 27.3421 262.366C27.2777 262.722 27.3362 263.09 27.508 263.409C27.9061 264.267 28.3907 265.084 28.9906 266.204C26.4975 266.363 24.1406 266.561 21.7806 266.619C21.5214 266.578 21.276 266.475 21.0653 266.319C20.8545 266.162 20.6848 265.957 20.5706 265.721C17.6846 257.296 14.7 248.899 12.0814 240.389C10.6525 235.746 9.87136 230.904 8.78136 226.156C8.35355 224.071 7.45426 222.111 6.15236 220.427C4.3219 218.391 3.2587 215.78 3.14577 213.044C3.09197 208.849 1.78776 204.866 0.650365 200.877C0.0102844 198.692 -0.159855 196.397 0.151158 194.142C1.09446 187.27 0.98987 180.349 1.15897 173.436C1.31895 169.645 1.67063 165.864 2.21267 162.108C3.78977 149.645 6.65707 137.432 9.75907 125.285C10.5167 122.319 12.1781 119.567 13.5491 116.778C14.7509 114.334 16.1091 111.95 16.3762 109.188C16.5837 107.042 16.5833 104.877 16.6998 102.721C16.7305 101.644 16.8219 100.569 16.9734 99.5019C17.4909 96.4288 19.0682 94.0287 22.1344 93.1741C25.1965 92.3207 28.3679 91.8456 31.5052 91.2806C33.8808 90.8528 36.2552 90.4192 38.2199 88.9154C42.9599 85.2879 48.6955 84.3243 54.2467 82.9143C56.9145 82.3081 59.3399 80.9173 61.2107 78.9211C63.0939 76.8611 64.7795 74.619 66.5396 72.447C67.0029 71.7954 67.5484 71.2064 68.1626 70.6945C68.1679 71.085 68.1375 71.4751 68.0717 71.86C67.5665 73.8824 67.6288 76.005 68.2517 77.9943C74.4517 99.7818 80.5952 121.584 87.5812 143.14C89.0683 147.729 89.9806 152.501 91.2705 157.157C91.8192 159.138 92.6579 161.038 93.3649 162.975L93.6883 162.883C93.6268 161.724 93.5654 160.564 93.504 159.404C93.1308 152.223 92.854 145.036 92.3491 137.865C92.1455 133.559 92.2343 129.244 92.6151 124.95C93.1168 117.218 92.9546 109.525 90.4344 102.07C90.3706 101.841 90.3197 101.608 90.2821 101.374C91.9544 101.545 92.0775 101.947 92.1521 103.429C92.3159 105.809 92.6058 108.178 93.0205 110.527C93.3683 112.733 94.0798 114.905 94.2091 117.116C94.3478 119.488 93.9512 121.886 93.8645 124.276C93.6833 129.268 93.352 134.265 93.4486 139.253C93.5853 146.31 94.0531 153.36 94.3793 160.412L94.7929 160.206C94.9929 160.331 95.2898 160.41 95.3774 160.59C96.3913 162.752 96.7613 165.159 96.4432 167.526L96.0832 167.599L94.9337 161.652C95.6898 167.896 96.1995 174.2 99.2148 180.149C99.4212 179.89 99.6039 179.613 99.7607 179.322C102.998 170.764 106.422 162.271 109.402 153.624C112.505 144.734 114.022 135.368 113.883 125.953C113.79 120.594 113.055 115.266 111.693 110.082C111.645 109.897 111.56 109.721 111.455 109.44C111.179 110.588 111.404 111.801 110.047 112.711C110.181 111.13 110.358 109.806 110.39 108.478C110.445 106.848 110.412 105.217 110.291 103.591C110.328 102.985 110.134 102.388 109.749 101.919C109.364 101.45 108.817 101.143 108.216 101.06L109.446 100.423C108.98 96.6507 107.959 92.9681 106.416 89.4942L106.112 89.5403L107.332 99.0668L107.073 99.1283C106.949 98.9467 106.845 98.7523 106.762 98.5483C106.044 96.0553 105.404 93.5383 104.614 91.0683C103.702 87.8756 103.265 84.5663 103.317 81.2464C103.237 79.5016 102.985 77.7689 102.564 76.0738C101.843 78.5861 100.523 80.886 98.7183 82.7765C97.1819 84.8709 95.034 86.4374 92.5703 87.2602C92.7754 87.0179 92.9665 86.7617 93.1881 86.5355C94.5874 85.1076 96.0529 83.7394 97.3851 82.2516C100.054 79.1536 101.778 75.3557 102.355 71.3077L102.038 71.0272C102.003 71.1882 101.976 71.3516 101.93 71.5099C101.369 73.4777 99.7541 74.4699 98.2326 75.5752C97.6864 76.0666 97.1695 76.5895 96.6845 77.1413C96.4284 77.3817 96.1208 77.5605 95.7853 77.6643C93.8653 78.2125 91.9067 78.6378 90.0165 79.2705C87.3743 80.1354 84.5197 80.0982 81.9011 79.1647C78.3097 78.0108 74.9964 76.1253 72.1701 73.6271C71.1731 72.7439 70.3396 71.6762 69.439 70.701C70.3306 74.0526 73.399 75.7949 75.439 78.309L75.1539 78.6273C74.2122 78.0132 73.3109 77.3396 72.4553 76.6104C70.0066 74.0953 68.4063 70.8771 67.8787 67.4068C67.1339 63.6591 66.6704 59.8554 66.0842 56.0762L66.4498 55.9762C66.6306 56.4927 66.7798 57.0232 66.9976 57.5235C68.2235 60.3335 69.4304 63.1526 70.7156 65.9355C71.5676 67.7804 72.9198 67.6679 74.2044 67.1733C74.9552 66.8842 75.4879 66.7927 76.0495 67.5425C76.1393 67.6788 76.2601 67.792 76.4019 67.8728C76.5437 67.9537 76.7026 68 76.8657 68.008C77.0287 68.0159 77.1914 67.9853 77.3404 67.9186C77.4894 67.852 77.6207 67.7511 77.7234 67.6242C78.0434 67.4225 78.3898 67.2658 78.7527 67.1587C78.7477 68.2387 77.0427 68.5329 77.9346 69.7987L82.6716 65.3477L80.8393 64.4633C81.375 64.3377 81.9175 64.2429 82.4641 64.1794C84.1329 64.1094 85.8034 64.0813 87.4726 64.0202C87.6633 63.9952 87.8463 63.9284 88.0083 63.8246C89.1843 63.1854 89.7559 63.4462 90.1283 64.8983C89.6855 64.9209 89.2619 64.925 88.8423 64.9683C88.2155 65.0325 87.6875 65.1071 87.8057 66.0349C87.851 66.3903 87.3969 66.9187 87.0377 67.1968C85.6651 68.0458 84.6617 69.3796 84.2266 70.9337C83.2033 70.5815 83.6574 69.8998 83.9275 69.3429C84.2386 68.7014 84.7181 68.1414 85.0266 67.499C85.3933 66.7352 85.6558 65.9215 85.9634 65.129L85.5798 64.9617C85.6956 66.5317 84.5587 67.0607 83.5498 67.7928C82.5951 68.5397 81.7217 69.3851 80.9441 70.3149C80.7066 70.5797 80.7556 71.1014 80.6733 71.5049L80.975 71.579L81.735 70.3312L83.0527 72.9742L84.2178 70.9206ZM118.774 114.15L118.288 114.613C118.211 114.995 117.974 115.453 118.108 115.734C118.21 115.947 118.83 116.084 119.139 115.991C119.742 115.802 120.309 115.514 120.818 115.138C121.793 114.424 121.181 113.77 120.642 113.144C119.981 112.376 119.618 113.036 119.23 113.458C119.059 113.675 118.906 113.906 118.774 114.15V114.15ZM125.289 116.05L125.643 116.222C125.563 116.871 125.448 117.515 125.298 118.151C124.732 120.101 123.972 122.007 123.555 123.986C122.723 127.235 123.083 130.675 124.571 133.68C125.541 135.522 126.317 135.805 128.267 135.136C128.772 134.985 129.222 134.692 129.564 134.292C129.906 133.892 130.126 133.402 130.197 132.88C130.354 131.701 130.365 130.508 130.23 129.327C130.174 128.816 129.625 128.36 129.3 127.879L128.964 128.104L129.916 130.422L129.648 130.611L127.739 129.372C128.069 129.852 128.498 130.256 128.996 130.558C129.977 131.27 129.828 132.21 129.44 133.142C128.965 134.284 127.922 134.252 126.981 134.081C125.888 133.883 126.492 132.922 126.411 132.304C126.353 131.787 126.408 131.262 126.572 130.768C127.177 128.912 127.841 127.076 128.406 125.456L127.316 126.239V123.362C127.018 124.447 126.985 125.551 126.748 126.609C126.681 127.176 126.432 127.706 126.039 128.119C125.645 128.533 125.128 128.807 124.565 128.902C125.577 127.094 125.97 125.005 125.686 122.953C125.545 121.703 125.329 120.529 126.85 119.965C126.917 119.94 126.928 119.764 126.95 119.699L126.333 119.312C126.531 119.09 126.726 118.681 126.928 118.678C127.724 118.695 128.519 118.752 129.309 118.848L129.361 119.228L126.177 121.386C126.845 121.868 127.548 122.298 128.281 122.673C128.784 122.886 129.591 123.086 129.937 122.838C131.045 122.054 132.055 121.14 132.947 120.117C133.99 118.899 133.837 118.109 132.681 117.057C132.504 116.896 132.341 116.719 132.179 116.542C130.553 114.762 130.527 114.766 128.323 115.847C127.515 116.243 126.663 117.05 125.879 115.771C125.823 115.717 125.753 115.678 125.677 115.657C125.601 115.636 125.521 115.635 125.445 115.653C124.185 116.144 122.934 116.66 121.555 117.221C122.889 118.358 123.932 118.505 124.425 117.771L122.619 117.589L122.607 117.259L125.289 116.05ZM129.886 110.678C132.04 110.715 132.646 111.373 132.296 113.436L130.885 111.49L130.519 111.748C130.912 112.346 131.179 113.143 131.73 113.489C132.347 113.828 132.814 114.385 133.04 115.051C133.167 115.302 133.329 115.533 133.521 115.738C133.665 115.341 133.691 114.912 133.597 114.501C133.369 113.002 133.093 111.508 132.919 110.003C132.555 106.851 132.016 106.074 128.979 105.483C127.607 105.216 127.184 104.651 127.309 103.35C127.344 102.994 126.999 102.29 126.794 102.277C126.038 102.229 125.151 101.934 124.315 102.7C125.101 102.765 125.882 102.874 126.655 103.027C126.86 103.079 126.972 103.499 127.127 103.75C126.91 103.891 126.674 104.001 126.426 104.075C125.942 104.148 125.447 104.145 124.956 104.174C125.904 104.697 127.324 104.249 127.38 105.834C127.865 105.721 128.363 105.678 128.86 105.708C129.016 105.781 129.154 105.889 129.261 106.024C129.369 106.159 129.444 106.317 129.48 106.485C129.67 107.525 129.768 108.581 129.881 109.634C129.9 109.982 129.902 110.33 129.886 110.678V110.678ZM37.6889 260.488L37.4216 260.349C37.0322 260.93 36.6081 261.487 36.1516 262.018C35.4964 262.701 34.8459 263.656 34.0336 263.861C32.8458 264.282 31.7941 265.017 30.9902 265.987C30.753 266.207 30.4702 266.634 30.5338 266.882C31.0379 268.855 31.6205 270.808 32.1356 272.615C32.8668 270.689 33.4956 268.735 34.3482 266.884C35.0122 265.442 35.9891 264.147 36.7574 262.749C37.1117 262.014 37.4228 261.259 37.6889 260.488V260.488ZM32.9232 201.312C32.7586 197.206 35.2472 193.539 34.8922 189.434C33.9934 190.846 33.3066 192.342 32.4165 193.706C30.6596 196.4 31.5622 198.854 32.9232 201.312ZM129.75 124.932C129.528 127.448 132.453 129.095 134.95 127.944C134.594 125.99 132.586 124.808 129.751 124.932H129.75ZM138.266 120.935C137.885 120.679 137.517 120.403 137.165 120.109C136.889 119.857 136.508 119.549 136.475 119.234C136.361 118.174 136.389 117.099 136.348 116.031C136.332 115.625 136.276 115.22 136.238 114.815C136.018 114.838 135.744 114.787 135.587 114.899C135.196 115.203 134.821 115.528 134.465 115.873L134.738 116.103L135.662 115.51L135.886 115.697C135.588 116.128 135.265 116.545 135.001 116.996C134.778 117.378 134.624 117.801 134.439 118.205L135.037 118.608L135.524 117.314L135.973 117.437C136.078 119.06 136.152 120.703 138.267 120.935H138.266ZM118.006 105.509C118.006 106.019 117.813 106.738 118.039 106.911C119.104 107.729 120.284 108.396 121.606 109.233C120.625 106.863 119.669 105.86 118.006 105.509ZM36.8408 176.267C36.3885 179.139 35.9362 182.012 35.4735 184.949C36.4981 182.483 37.2881 177.961 36.8408 176.267V176.267ZM116.252 97.2039L120.169 100.714C119.957 99.7967 119.467 98.9674 118.766 98.3392C118.065 97.711 117.187 97.3146 116.252 97.204V97.2039ZM124.095 97.2139L124.56 96.9493L123.385 95.3493L123.067 95.4699L122.127 99.5338L122.502 99.6379C122.788 98.5337 123.075 97.4295 123.362 96.3253L123.728 96.4119L124.095 97.2139ZM131.965 123.881C132.905 124.151 133.514 123.728 133.578 122.851C133.605 122.473 133.051 122.051 132.761 121.65L131.747 122.42L131.958 122.668L133.093 122.157L133.353 122.445L131.965 123.881ZM95.8878 70.1795C95.9854 71.5411 96.6165 72.1249 97.5455 72.1049C97.1001 71.588 96.5212 70.9157 95.8878 70.1795ZM126.343 101.428C126.341 100.278 125.367 100.271 124.722 99.8308C124.63 100.615 124.823 100.798 126.343 101.428ZM79.2557 74.3355L79.3557 74.0834L76.1616 73.1545L76.0374 73.6359L79.2557 74.3355ZM102.777 10.247L103.484 9.35331L101.614 8.27621L102.777 10.247ZM128.445 107.464L126.78 108.627C128.326 108.88 128.421 108.814 128.445 107.464ZM71.6739 69.0589C73.2808 69.948 74.5881 70.097 74.4957 68.1722C74.1038 70.2422 72.8632 69.2142 71.6739 69.0589ZM121.681 104.717L121.985 104.478L120.711 102.84L120.324 103.144L121.681 104.717ZM87.991 78.2645L88.0197 77.9597L85.2129 77.6743L85.1841 77.9784L87.991 78.2645Z" fill="#138086"/>
<path d="M66.2188 37.8108C66.2215 37.481 66.2243 37.151 66.2271 36.8208C68.4276 36.4871 70.6258 36.1356 72.8297 35.8261C74.2721 35.6236 75.7229 35.482 77.1696 35.3132L77.1665 35.0015H73.8309L73.6997 34.5597C74.136 34.3397 74.591 33.9017 75.0057 33.9369C77.2225 34.1252 79.442 34.3603 81.6304 34.7493C82.1548 34.8425 82.5643 35.5834 83.0266 36.0263L82.8258 36.3747C82.1578 36.2559 81.4899 36.137 80.822 36.018C85.4194 39.368 88.4066 39.4379 93.4074 36.2717C93.3192 35.9658 93.2252 35.6401 93.1339 35.3237C94.9099 34.5537 99.3012 34.6679 100.277 35.6037H97.498L97.47 35.8942C99.3958 36.187 101.321 36.4842 103.247 36.7713C104.51 36.9596 105.785 37.0863 107.033 37.3422C107.256 37.3909 107.466 37.4843 107.651 37.6167C107.836 37.749 107.993 37.9176 108.111 38.1123C108.218 38.3396 107.882 39.0141 107.587 39.1522C105.792 39.9929 105.414 41.6769 105.195 43.3144C104.805 46.23 102.985 47.5796 100.349 47.9338C98.3459 48.202 96.3212 48.2747 94.3038 48.1509C93.336 48.0799 92.4107 47.7249 91.6436 47.1305C90.8766 46.5361 90.3019 45.7286 89.9915 44.8092C89.4768 43.5969 88.9292 42.3987 88.3943 41.1951C87.9816 40.2664 87.3006 40.2166 86.5508 40.715C86.12 40.9986 85.7442 41.3581 85.4418 41.776C85.091 42.3097 84.7901 42.8746 84.5428 43.4635C82.9036 47.0535 80.9028 48.2758 76.9728 47.7753C75.1307 47.4979 73.3141 47.0719 71.5406 46.5015C71.033 46.3578 70.5815 46.0621 70.2469 45.6542C69.9124 45.2462 69.7108 44.7455 69.6693 44.2196C69.6397 44.1036 69.6042 43.9892 69.5628 43.8768C69.0204 41.5394 68.7657 39.0436 66.2188 37.8108ZM74.9464 36.2609L74.9237 36.4447C74.2852 36.4447 73.645 36.4147 73.0085 36.4505C72.2599 36.4109 71.5215 36.6385 70.9252 37.093C70.329 37.5474 69.9136 38.199 69.7534 38.9314C69.4206 40.9634 69.8677 43.0462 71.0052 44.7627C71.7232 46.0144 73.1508 45.787 74.2926 46.1427C74.5222 46.2114 74.7582 46.256 74.997 46.2757C77.3949 46.4982 79.7987 46.6657 81.9822 45.3563C83.9261 44.1903 84.409 42.3313 84.3222 40.2071C84.2337 38.0384 82.6208 37.4337 80.9676 37.0877C78.9896 36.6745 76.956 36.5251 74.9464 36.2612V36.2609ZM93.0334 37.6135C98.8915 38.1772 101.908 39.3966 102.97 41.5535C102.859 41.5901 102.746 41.6694 102.645 41.6549C100.433 41.3358 98.2162 41.0432 96.0182 40.6457C95.6082 40.5716 95.2864 40.0557 94.9051 39.7677C94.6689 39.6082 94.4236 39.4625 94.1705 39.3313L94.0332 39.6498L94.6621 40.8328L94.2921 41.1444C93.963 40.7594 93.5999 40.4048 93.2072 40.0849C92.8913 39.9438 92.553 39.8597 92.2079 39.8366L92.9135 38.4223L90.826 40.2565C91.9046 40.6961 93.0166 41.0488 94.1513 41.3114C96.045 41.5809 97.9677 41.6414 99.8757 41.8184C100.419 41.8684 100.952 42.0192 101.803 42.1847C99.7659 43.0307 94.7587 42.8278 92.3791 41.9721C90.191 41.1853 90.126 41.0609 90.7358 38.8693C90.7458 38.8321 90.6508 38.7656 90.4958 38.5873C90.1637 39.0773 89.9396 39.6324 89.8383 40.2157C89.7371 40.799 89.761 41.3971 89.9084 41.9704C90.6063 45.1981 92.9308 46.8465 95.9193 47.443C99.9186 48.2414 103.666 47.3715 104.447 42.5568C104.532 42.0046 104.575 41.4465 104.576 40.8877C104.59 38.6577 103.858 37.6192 101.664 37.4049C99.2479 37.1688 96.8018 37.2207 94.368 37.1885C93.9063 37.2708 93.4574 37.4139 93.0331 37.6139L93.0334 37.6135Z" fill="#138086"/>
<path d="M100.697 159.796C99.5767 159.866 99.4051 159.112 99.354 158.251C99.174 155.221 98.9456 152.193 98.8213 149.16C98.4646 140.459 98.318 131.745 97.732 123.06C97.512 119.801 96.3345 116.602 95.5484 113.387C94.7143 109.976 93.8223 106.58 92.9684 103.173C92.896 102.798 92.8461 102.419 92.8191 102.038C94.3152 101.731 94.5943 101.89 94.8591 103.149C96.2628 109.828 97.6636 116.508 99.0612 123.188C99.1298 123.459 99.1652 123.738 99.1665 124.018C98.7944 133.224 100.549 142.333 100.417 151.532C100.378 154.241 100.696 156.955 100.85 159.667C100.799 159.71 100.748 159.753 100.697 159.796Z" fill="#138086"/>
<path d="M82.7531 50.8605C81.5837 50.2136 80.2868 50.0105 80.2757 48.3192C80.4654 48.5754 80.6877 48.8057 80.9371 49.0042C81.2766 49.2115 81.7319 49.511 82.0477 49.4283C83.7105 48.9931 84.9589 49.925 86.3177 50.7283H83.7766C85.7666 52.3115 85.7932 52.4634 84.6486 54.6227C84.4239 55.0466 84.1936 55.468 83.9826 55.8987C83.8677 56.2323 83.6619 56.5272 83.3885 56.7502C83.1151 56.9732 82.7848 57.1154 82.4349 57.1608C82.099 57.2699 81.7347 57.2508 81.4121 57.1073C81.0895 56.9637 80.8314 56.7058 80.6877 56.3832C80.6109 56.244 80.3518 56.2053 80.1665 56.1151L80.3274 57.6699L79.0879 57.0483L78.8908 57.2137L79.7101 58.9718C78.7076 58.5995 77.9347 58.3273 77.1737 58.0252C76.595 57.7952 76.206 57.7272 75.8375 58.458C75.4924 58.9146 74.9903 59.2271 74.4283 59.3351C74.269 59.3784 73.8583 58.724 73.6602 58.3393C73.4968 57.8782 73.2665 57.4435 72.9767 57.0493C73.1156 57.5373 73.2152 58.0355 73.2748 58.5393C73.2887 58.8126 73.0656 59.0979 72.9493 59.3777C72.6846 59.1677 72.1658 58.9134 72.1937 58.7552C72.5444 56.7668 72.9595 54.7889 73.4071 52.8195C73.4498 52.6316 73.8055 52.4275 74.0436 52.3844C76.9431 51.86 79.8488 51.364 82.7531 50.8605Z" fill="#138086"/>
<path d="M98.7855 54.5009L95.0432 48.8038C96.1011 49.0128 97.0578 49.5721 97.7589 50.3914C98.4599 51.2108 98.8645 52.2424 98.9073 53.3199C99.0603 55.3855 99.0579 57.4623 99.1415 59.5335C99.1606 60.0052 99.2515 60.4735 99.3325 61.1288L98.2659 60.7425L99.9621 63.4225C99.1834 63.2333 98.4696 62.8388 97.8952 62.28C97.3207 61.7212 96.9066 61.0186 96.6959 60.2454C95.8484 57.7345 96.2237 58.0466 93.7686 58.9969C93.2551 59.1956 92.7426 59.3969 91.8843 59.7313C92.4835 58.7513 92.9081 58.0572 93.3732 57.2965C91.0404 56.5044 90.9112 58.2601 90.2832 59.5286C90.2577 59.2795 90.2171 59.0321 90.1616 58.7878C89.8278 57.6238 89.5191 56.45 89.1183 55.3088C88.9367 54.7916 88.4027 54.3688 88.3156 53.855C88.2056 53.2088 88.1456 52.2797 88.51 51.8969C88.7915 51.6428 89.1207 51.4471 89.4784 51.3211C89.8361 51.1952 90.2153 51.1414 90.5939 51.163C91.8696 51.2593 93.1219 51.5578 94.3039 52.0474C95.8379 52.7898 97.3336 53.6086 98.7855 54.5009V54.5009Z" fill="#138086"/>
<path d="M97.2816 90.9717C95.2389 91.5373 95.7007 92.7608 96.1483 94.1536C96.4643 95.1479 96.5555 96.2001 96.4153 97.234C96.275 98.2679 95.9068 99.2577 95.3372 100.132C95.093 100.594 94.6897 100.951 94.202 101.138C93.7144 101.325 93.1755 101.329 92.6852 101.149C91.4286 100.845 90.3033 100.144 89.4759 99.1508C88.6485 98.1573 88.163 96.9238 88.0913 95.6329C88.043 94.0908 88.2607 92.5518 88.7349 91.0836C89.1262 89.7081 89.8944 89.3869 91.3326 89.616C91.9631 89.7149 92.5741 89.9124 93.1432 90.2012C93.4931 90.4634 93.925 90.5923 94.3614 90.5648C94.7978 90.5373 95.2101 90.3552 95.5244 90.0512C96.3032 89.3757 96.7889 90.0576 97.2816 90.9717ZM89.3539 91.6143L88.9647 91.7543C89.2161 92.377 89.3582 93.0385 89.3847 93.7095C89.2106 95.105 89.5941 96.5129 90.4519 97.6273C90.7814 98.1128 91.0137 98.6634 91.3259 99.1619C91.5098 99.4129 91.7135 99.6488 91.935 99.8673C92.17 99.6491 92.3684 99.3946 92.5226 99.1134C92.6078 98.8047 92.6105 98.4791 92.5307 98.169C91.9583 95.78 90.8745 93.5437 89.3539 91.6143V91.6143ZM93.7446 98.6356L94.0846 98.7835C94.208 98.4958 94.4897 98.1613 94.4214 97.9302C94.2351 97.4747 93.996 97.0426 93.709 96.6429L93.469 96.7841L93.7446 98.6356Z" fill="#138086"/>
<path d="M100.85 159.666C101.344 160.945 101.744 162.257 102.05 163.593C102.229 165.056 102.284 166.531 102.213 168.002C102.21 168.297 101.807 168.841 101.615 168.829C101.203 168.804 100.509 168.555 100.453 168.288C99.9827 166.05 99.6302 163.787 99.2427 161.531L99.7394 161.361C99.9877 161.762 100.184 162.193 100.322 162.643C100.609 164.291 100.817 165.953 101.064 167.608C101.104 167.783 101.158 167.953 101.227 168.119L101.592 168.06C101.294 165.306 100.995 162.551 100.697 159.796C100.748 159.753 100.799 159.71 100.85 159.666Z" fill="#138086"/>
<path d="M62.4187 37.121C62.5493 37.4902 62.5818 37.887 62.5131 38.2725C62.4443 38.6581 62.2766 39.0191 62.0264 39.3204C61.7503 39.6876 60.9187 40.4699 62.095 40.9572C62.1542 40.9817 62.1705 41.1772 62.1613 41.2891C61.9992 43.2505 61.83 45.2113 61.6374 47.4633C61.3726 46.9779 61.0349 46.6364 61.0142 46.2767C60.8567 43.5415 60.7376 40.8042 60.6568 38.0647C60.6205 36.8366 61.524 36.9676 62.3387 37.0394L62.4187 37.121Z" fill="#138086"/>
<path d="M98.0095 91.7831L103.268 97.7159L102.991 97.9629C100.709 96.5051 98.88 94.4385 97.7102 91.9962L98.0095 91.7831Z" fill="#138086"/>
<path d="M104.734 55.1746C104.469 57.7121 104.236 59.9526 103.981 62.3987C102.808 61.0879 103.252 57.0596 104.734 55.1746Z" fill="#138086"/>
<path d="M87.2866 50.8048C87.9271 50.4654 88.5717 50.1332 89.2073 49.7848C89.7095 49.507 90.298 49.4283 90.8555 49.5645C91.4131 49.7006 91.899 50.0416 92.2167 50.5196C90.5438 51.388 88.8271 50.4678 87.2866 50.8048Z" fill="#138086"/>
<path d="M63.7045 43.7054C64.0371 45.0915 64.3696 46.4777 64.7021 47.8639C62.2161 45.8796 62.1723 45.7176 63.7045 43.7054Z" fill="#138086"/>
<path d="M111.948 43.0754C112.477 43.9529 112.757 44.9581 112.757 45.9829C112.757 47.0076 112.477 48.0129 111.948 48.8903V43.0754Z" fill="#138086"/>
<path d="M85.0747 92.0141C85.4447 91.6095 85.7625 90.9669 86.2011 90.8695C86.4684 90.8729 86.732 90.9325 86.9748 91.0443C87.2176 91.1561 87.4342 91.3177 87.6105 91.5186C88.073 91.9977 87.9089 92.5403 87.1668 92.5654C86.5154 92.5437 85.8666 92.4726 85.2259 92.3528L85.0747 92.0141Z" fill="#138086"/>
<path d="M88.9104 65.1996C89.2625 65.9588 89.646 66.7062 89.9425 67.4866C89.9559 67.6119 89.9369 67.7386 89.8875 67.8545C89.8381 67.9705 89.7599 68.0719 89.6603 68.1491C89.5196 68.1728 89.3753 68.1645 89.2382 68.1248C89.101 68.0851 88.9746 68.0151 88.8682 67.9199C88.6828 67.7439 88.5358 67.5313 88.4367 67.2956C88.3376 67.0599 88.2885 66.8061 88.2925 66.5505C88.2964 66.2948 88.3534 66.0427 88.4598 65.8102C88.5661 65.5777 88.7196 65.3698 88.9104 65.1996V65.1996Z" fill="#138086"/>
<path d="M74.9116 50.929C75.9777 50.0537 76.3429 48.3189 78.0726 48.2574L78.3426 48.5882L75.1568 51.2292L74.9116 50.929Z" fill="#138086"/>
<path d="M91.0398 87.796C89.3504 89.2403 89.1917 89.2385 88.1189 87.796H91.0398Z" fill="#138086"/>
<path d="M81.2356 59.2495L85.0356 59.7554L84.9575 60.271L81.175 59.6482L81.2356 59.2495Z" fill="#138086"/>
<path d="M86.915 55.6906L89.1775 55.9987L89.1058 56.5831L86.8191 56.3306L86.915 55.6906Z" fill="#138086"/>
<path d="M72.1824 20.1623L74.4632 18.2539L74.8291 18.7212L72.4065 20.4478L72.1824 20.1623Z" fill="#138086"/>
<path d="M65.9647 50.9269L66.3063 54.4645L65.8827 54.504C65.7764 53.3273 65.6701 52.1507 65.5637 50.974L65.9647 50.9269Z" fill="#138086"/>
<path d="M118.288 114.613C118.45 114.458 118.612 114.304 118.774 114.149C119.058 113.94 119.352 113.746 119.656 113.566C120.39 113.177 121.084 113.735 120.871 114.197C120.477 114.915 119.831 115.462 119.059 115.735C118.43 115.954 118.217 115.232 118.288 114.613Z" fill="#138086"/>
<path d="M134.654 127.681C132.226 128.121 130.42 127.124 130.149 125.376C132.065 125.202 133.066 126.648 134.654 127.681Z" fill="#138086"/>
<path d="M80.285 38.517C80.0399 38.696 79.8098 38.8947 79.5969 39.111C79.4406 39.3603 79.2327 39.5731 78.9872 39.7351C78.7416 39.8971 78.4642 40.0046 78.1735 40.0502C77.8829 40.0958 77.5858 40.0785 77.3025 39.9996C77.0191 39.9206 76.7559 39.7817 76.5308 39.5923C76.2816 39.3794 75.9712 39.2511 75.6443 39.2261C75.3175 39.2011 74.9911 39.2806 74.7124 39.4531C73.7477 39.8158 72.7493 40.0816 71.7319 40.2466C71.5039 40.2559 71.2765 40.2156 71.0656 40.1285C70.8546 40.0414 70.6651 39.9096 70.51 39.7422C71.4133 39.5116 72.3336 39.3322 73.2149 39.0359C74.0533 38.7716 74.8627 38.4229 75.6306 37.995C77.8718 36.6867 80.0078 37.165 82.1086 38.2883C82.4138 38.4991 82.6385 38.8071 82.7461 39.162C82.7919 39.2911 82.4547 39.7243 82.2851 39.7283C81.8664 39.7466 81.4505 39.6525 81.0804 39.4558C80.7673 39.1869 80.4988 38.8701 80.285 38.517V38.517Z" fill="#138086"/>
<path d="M75.8064 41.9211C78.5138 41.4396 81.2714 41.5511 83.4649 39.5145C83.9918 40.3294 83.8019 41.0509 83.0902 41.2317C81.1451 41.7259 79.1583 42.0722 77.1727 42.3774C76.7506 42.4422 76.2632 42.0843 75.8064 41.9211Z" fill="#138086"/>
<path d="M70.5417 39.3817C71.0611 36.9569 71.9744 36.5717 75.2661 37.2138C74.2044 37.5994 73.3974 37.8338 72.6436 38.1831C71.9144 38.5211 71.2401 38.9774 70.5417 39.3817Z" fill="#138086"/>
<path d="M103.636 39.7513L99.7051 38.0288C100.432 37.6885 101.261 37.634 102.026 37.8762C102.792 38.1185 103.438 38.6397 103.837 39.3364L103.636 39.7513Z" fill="#138086"/>
<path d="M91.4113 98.2334C90.7837 96.9688 90.1561 95.7043 89.5283 94.4397L89.9748 94.2197L91.8837 98.0052L91.4113 98.2334Z" fill="#138086"/>
</svg>
