<svg xmlns="http://www.w3.org/2000/svg" xmlns:xlink="http://www.w3.org/1999/xlink" width="674" zoomAndPan="magnify" viewBox="0 0 674 176" height="176" preserveAspectRatio="xMidYMid meet" version="1.0"><defs><g/><clipPath id="f18862fdb1"><path d="M 37.5 150 L 112.5 150 L 112.5 225 L 37.5 225 Z M 37.5 150 " clip-rule="nonzero"/></clipPath></defs><g clip-path="url(#f18862fdb1)"><path fill="#03989e" d="M 75 150 C 54.324219 150 37.5 166.824219 37.5 187.5 C 37.5 208.175781 54.324219 225 75 225 C 95.675781 225 112.5 208.175781 112.5 187.5 C 112.5 166.824219 95.675781 150 75 150 Z M 67.046875 195.457031 C 71.296875 199.707031 78.703125 199.707031 82.953125 195.457031 L 88.257812 200.761719 C 84.714844 204.300781 80.011719 206.25 75 206.25 C 69.988281 206.25 65.285156 204.300781 61.742188 200.761719 C 54.433594 193.449219 54.433594 181.550781 61.742188 174.242188 C 65.285156 170.699219 69.988281 168.75 75 168.75 C 80.011719 168.75 84.714844 170.699219 88.257812 174.238281 L 82.953125 179.542969 C 78.703125 175.292969 71.296875 175.292969 67.046875 179.542969 C 62.660156 183.929688 62.660156 191.070312 67.046875 195.457031 Z M 67.046875 195.457031 " fill-opacity="1" fill-rule="nonzero"/></g><g fill="#000000" fill-opacity="1"><g transform="translate(121.225866, 179.999988)"><g><path d="M 14.671875 -28.890625 L 14.671875 -8.15625 C 14.671875 -5.332031 13.894531 -3.175781 12.34375 -1.6875 C 10.789062 -0.207031 8.566406 0.53125 5.671875 0.53125 C 4.898438 0.53125 4.140625 0.4375 3.390625 0.25 C 2.648438 0.0625 2.019531 -0.164062 1.5 -0.4375 C 0.988281 -0.707031 0.53125 -0.984375 0.125 -1.265625 C -0.28125 -1.546875 -0.578125 -1.773438 -0.765625 -1.953125 L -1.078125 -2.234375 L 1.015625 -7.734375 C 2.390625 -6.429688 3.640625 -5.78125 4.765625 -5.78125 C 5.765625 -5.78125 6.566406 -6.113281 7.171875 -6.78125 C 7.785156 -7.445312 8.09375 -8.46875 8.09375 -9.84375 L 8.09375 -28.890625 Z M 14.671875 -28.890625 "/></g></g></g><g fill="#000000" fill-opacity="1"><g transform="translate(135.892132, 179.999988)"><g><path d="M 3.796875 -2.125 C 1.804688 -3.90625 0.8125 -6.179688 0.8125 -8.953125 C 0.8125 -11.734375 1.847656 -14.015625 3.921875 -15.796875 C 5.992188 -17.585938 8.5625 -18.484375 11.625 -18.484375 C 14.632812 -18.484375 17.171875 -17.582031 19.234375 -15.78125 C 21.304688 -13.988281 22.34375 -11.710938 22.34375 -8.953125 C 22.34375 -6.203125 21.332031 -3.929688 19.3125 -2.140625 C 17.289062 -0.359375 14.726562 0.53125 11.625 0.53125 C 8.40625 0.53125 5.796875 -0.351562 3.796875 -2.125 Z M 8.59375 -12 C 7.789062 -11.207031 7.390625 -10.191406 7.390625 -8.953125 C 7.390625 -7.722656 7.773438 -6.71875 8.546875 -5.9375 C 9.316406 -5.15625 10.332031 -4.765625 11.59375 -4.765625 C 12.800781 -4.765625 13.796875 -5.160156 14.578125 -5.953125 C 15.359375 -6.742188 15.75 -7.75 15.75 -8.96875 C 15.75 -10.195312 15.347656 -11.207031 14.546875 -12 C 13.742188 -12.800781 12.757812 -13.203125 11.59375 -13.203125 C 10.394531 -13.203125 9.394531 -12.800781 8.59375 -12 Z M 8.59375 -12 "/></g></g></g><g fill="#000000" fill-opacity="1"><g transform="translate(157.279148, 179.999988)"><g><path d="M 9.90625 -18.484375 C 10.9375 -18.484375 11.953125 -18.363281 12.953125 -18.125 C 13.960938 -17.894531 14.710938 -17.664062 15.203125 -17.4375 L 15.9375 -17.09375 L 13.90625 -13.03125 C 12.5 -13.769531 11.164062 -14.140625 9.90625 -14.140625 C 9.207031 -14.140625 8.710938 -14.0625 8.421875 -13.90625 C 8.128906 -13.757812 7.984375 -13.476562 7.984375 -13.0625 C 7.984375 -12.96875 7.992188 -12.875 8.015625 -12.78125 C 8.035156 -12.6875 8.082031 -12.597656 8.15625 -12.515625 C 8.226562 -12.429688 8.289062 -12.359375 8.34375 -12.296875 C 8.40625 -12.242188 8.503906 -12.179688 8.640625 -12.109375 C 8.785156 -12.046875 8.898438 -11.992188 8.984375 -11.953125 C 9.066406 -11.921875 9.203125 -11.867188 9.390625 -11.796875 C 9.578125 -11.722656 9.710938 -11.671875 9.796875 -11.640625 C 9.890625 -11.609375 10.046875 -11.554688 10.265625 -11.484375 C 10.492188 -11.410156 10.664062 -11.363281 10.78125 -11.34375 C 11.507812 -11.132812 12.140625 -10.898438 12.671875 -10.640625 C 13.210938 -10.390625 13.78125 -10.039062 14.375 -9.59375 C 14.96875 -9.144531 15.425781 -8.582031 15.75 -7.90625 C 16.082031 -7.226562 16.25 -6.460938 16.25 -5.609375 C 16.25 -1.515625 13.410156 0.53125 7.734375 0.53125 C 6.453125 0.53125 5.234375 0.332031 4.078125 -0.0625 C 2.921875 -0.46875 2.085938 -0.867188 1.578125 -1.265625 L 0.8125 -1.890625 L 3.328125 -6.125 C 3.515625 -5.957031 3.757812 -5.765625 4.0625 -5.546875 C 4.363281 -5.328125 4.910156 -5.023438 5.703125 -4.640625 C 6.492188 -4.253906 7.1875 -4.0625 7.78125 -4.0625 C 9.0625 -4.0625 9.703125 -4.492188 9.703125 -5.359375 C 9.703125 -5.753906 9.535156 -6.0625 9.203125 -6.28125 C 8.878906 -6.507812 8.328125 -6.757812 7.546875 -7.03125 C 6.765625 -7.3125 6.148438 -7.570312 5.703125 -7.8125 C 4.585938 -8.394531 3.703125 -9.050781 3.046875 -9.78125 C 2.390625 -10.519531 2.0625 -11.492188 2.0625 -12.703125 C 2.0625 -14.523438 2.765625 -15.941406 4.171875 -16.953125 C 5.585938 -17.972656 7.5 -18.484375 9.90625 -18.484375 Z M 9.90625 -18.484375 "/></g></g></g><g fill="#000000" fill-opacity="1"><g transform="translate(172.750506, 179.999988)"><g><path d="M 2.09375 0 L 2.09375 -30.109375 L 8.296875 -30.109375 L 8.296875 -16.078125 L 8.375 -16.078125 C 9.976562 -17.679688 11.691406 -18.484375 13.515625 -18.484375 C 14.398438 -18.484375 15.28125 -18.363281 16.15625 -18.125 C 17.03125 -17.894531 17.867188 -17.535156 18.671875 -17.046875 C 19.484375 -16.554688 20.140625 -15.863281 20.640625 -14.96875 C 21.140625 -14.070312 21.390625 -13.023438 21.390625 -11.828125 L 21.390625 0 L 15.203125 0 L 15.203125 -10.15625 C 15.203125 -11.09375 14.898438 -11.910156 14.296875 -12.609375 C 13.703125 -13.304688 12.925781 -13.65625 11.96875 -13.65625 C 11.039062 -13.65625 10.195312 -13.289062 9.4375 -12.5625 C 8.675781 -11.84375 8.296875 -11.039062 8.296875 -10.15625 L 8.296875 0 Z M 2.09375 0 "/></g></g></g><g fill="#000000" fill-opacity="1"><g transform="translate(194.137521, 179.999988)"><g><path d="M 7.953125 -17.96875 L 7.953125 -9.421875 C 7.953125 -7.648438 8.21875 -6.390625 8.75 -5.640625 C 9.289062 -4.890625 10.203125 -4.515625 11.484375 -4.515625 C 12.765625 -4.515625 13.671875 -4.890625 14.203125 -5.640625 C 14.742188 -6.390625 15.015625 -7.648438 15.015625 -9.421875 L 15.015625 -17.96875 L 21.21875 -17.96875 L 21.21875 -7.90625 C 21.21875 -4.925781 20.441406 -2.773438 18.890625 -1.453125 C 17.335938 -0.128906 14.867188 0.53125 11.484375 0.53125 C 8.097656 0.53125 5.628906 -0.128906 4.078125 -1.453125 C 2.523438 -2.773438 1.75 -4.925781 1.75 -7.90625 L 1.75 -17.96875 Z M 7.953125 -17.96875 "/></g></g></g><g fill="#000000" fill-opacity="1"><g transform="translate(215.349521, 179.999988)"><g><path d="M 3.328125 -2.21875 C 1.648438 -4.050781 0.8125 -6.296875 0.8125 -8.953125 C 0.8125 -11.617188 1.648438 -13.875 3.328125 -15.71875 C 5.003906 -17.5625 7.140625 -18.484375 9.734375 -18.484375 C 12.117188 -18.484375 14.078125 -17.738281 15.609375 -16.25 L 15.609375 -17.96875 L 21.8125 -17.96875 L 21.8125 0 L 15.6875 0 L 15.6875 -2.03125 L 15.609375 -2.03125 C 14.078125 -0.320312 12.117188 0.53125 9.734375 0.53125 C 7.140625 0.53125 5.003906 -0.382812 3.328125 -2.21875 Z M 8.59375 -12 C 7.789062 -11.207031 7.390625 -10.191406 7.390625 -8.953125 C 7.390625 -7.722656 7.773438 -6.71875 8.546875 -5.9375 C 9.316406 -5.15625 10.332031 -4.765625 11.59375 -4.765625 C 12.800781 -4.765625 13.796875 -5.160156 14.578125 -5.953125 C 15.359375 -6.742188 15.75 -7.75 15.75 -8.96875 C 15.75 -10.195312 15.347656 -11.207031 14.546875 -12 C 13.742188 -12.800781 12.757812 -13.203125 11.59375 -13.203125 C 10.394531 -13.203125 9.394531 -12.800781 8.59375 -12 Z M 8.59375 -12 "/></g></g></g><g fill="#000000" fill-opacity="1"><g transform="translate(121.225866, 212.999986)"><g><path d="M 17.46875 -5.953125 C 18.476562 -5.953125 19.453125 -6.101562 20.390625 -6.40625 C 21.335938 -6.707031 22.035156 -7 22.484375 -7.28125 L 23.140625 -7.734375 L 25.953125 -2.140625 C 25.859375 -2.066406 25.726562 -1.972656 25.5625 -1.859375 C 25.394531 -1.742188 25.015625 -1.523438 24.421875 -1.203125 C 23.828125 -0.890625 23.191406 -0.613281 22.515625 -0.375 C 21.835938 -0.144531 20.945312 0.0625 19.84375 0.25 C 18.75 0.4375 17.617188 0.53125 16.453125 0.53125 C 13.773438 0.53125 11.234375 -0.128906 8.828125 -1.453125 C 6.421875 -2.773438 4.484375 -4.585938 3.015625 -6.890625 C 1.546875 -9.203125 0.8125 -11.703125 0.8125 -14.390625 C 0.8125 -16.421875 1.238281 -18.367188 2.09375 -20.234375 C 2.957031 -22.109375 4.109375 -23.707031 5.546875 -25.03125 C 6.984375 -26.363281 8.660156 -27.425781 10.578125 -28.21875 C 12.492188 -29.007812 14.453125 -29.40625 16.453125 -29.40625 C 18.328125 -29.40625 20.050781 -29.179688 21.625 -28.734375 C 23.195312 -28.296875 24.3125 -27.859375 24.96875 -27.421875 L 25.953125 -26.75 L 23.140625 -21.15625 C 22.984375 -21.289062 22.738281 -21.457031 22.40625 -21.65625 C 22.082031 -21.851562 21.429688 -22.113281 20.453125 -22.4375 C 19.472656 -22.769531 18.476562 -22.9375 17.46875 -22.9375 C 15.882812 -22.9375 14.460938 -22.675781 13.203125 -22.15625 C 11.941406 -21.644531 10.941406 -20.96875 10.203125 -20.125 C 9.472656 -19.289062 8.914062 -18.390625 8.53125 -17.421875 C 8.144531 -16.453125 7.953125 -15.46875 7.953125 -14.46875 C 7.953125 -12.269531 8.773438 -10.300781 10.421875 -8.5625 C 12.066406 -6.820312 14.414062 -5.953125 17.46875 -5.953125 Z M 17.46875 -5.953125 "/></g></g></g><g fill="#000000" fill-opacity="1"><g transform="translate(145.833248, 212.999986)"><g><path d="M 3.796875 -2.125 C 1.804688 -3.90625 0.8125 -6.179688 0.8125 -8.953125 C 0.8125 -11.734375 1.847656 -14.015625 3.921875 -15.796875 C 5.992188 -17.585938 8.5625 -18.484375 11.625 -18.484375 C 14.632812 -18.484375 17.171875 -17.582031 19.234375 -15.78125 C 21.304688 -13.988281 22.34375 -11.710938 22.34375 -8.953125 C 22.34375 -6.203125 21.332031 -3.929688 19.3125 -2.140625 C 17.289062 -0.359375 14.726562 0.53125 11.625 0.53125 C 8.40625 0.53125 5.796875 -0.351562 3.796875 -2.125 Z M 8.59375 -12 C 7.789062 -11.207031 7.390625 -10.191406 7.390625 -8.953125 C 7.390625 -7.722656 7.773438 -6.71875 8.546875 -5.9375 C 9.316406 -5.15625 10.332031 -4.765625 11.59375 -4.765625 C 12.800781 -4.765625 13.796875 -5.160156 14.578125 -5.953125 C 15.359375 -6.742188 15.75 -7.75 15.75 -8.96875 C 15.75 -10.195312 15.347656 -11.207031 14.546875 -12 C 13.742188 -12.800781 12.757812 -13.203125 11.59375 -13.203125 C 10.394531 -13.203125 9.394531 -12.800781 8.59375 -12 Z M 8.59375 -12 "/></g></g></g><g fill="#000000" fill-opacity="1"><g transform="translate(167.220263, 212.999986)"><g><path d="M 2.09375 0 L 2.09375 -17.96875 L 8.296875 -17.96875 L 8.296875 -16.078125 L 8.375 -16.078125 C 9.976562 -17.679688 11.691406 -18.484375 13.515625 -18.484375 C 14.828125 -18.484375 16.050781 -18.210938 17.1875 -17.671875 C 18.332031 -17.140625 19.195312 -16.316406 19.78125 -15.203125 C 21.601562 -17.390625 23.585938 -18.484375 25.734375 -18.484375 C 27.648438 -18.484375 29.296875 -17.945312 30.671875 -16.875 C 32.046875 -15.800781 32.734375 -14.117188 32.734375 -11.828125 L 32.734375 0 L 26.546875 0 L 26.546875 -10.15625 C 26.546875 -11.113281 26.28125 -11.910156 25.75 -12.546875 C 25.226562 -13.191406 24.441406 -13.515625 23.390625 -13.515625 C 22.484375 -13.515625 21.789062 -13.238281 21.3125 -12.6875 C 20.832031 -12.144531 20.566406 -11.488281 20.515625 -10.71875 L 20.515625 0 L 14.328125 0 L 14.328125 -10.15625 C 14.328125 -11.113281 14.0625 -11.910156 13.53125 -12.546875 C 13.007812 -13.191406 12.222656 -13.515625 11.171875 -13.515625 C 10.210938 -13.515625 9.492188 -13.21875 9.015625 -12.625 C 8.535156 -12.03125 8.296875 -11.320312 8.296875 -10.5 L 8.296875 0 Z M 2.09375 0 "/></g></g></g><g fill="#000000" fill-opacity="1"><g transform="translate(199.948544, 212.999986)"><g><path d="M 20.578125 -15.734375 C 22.265625 -13.898438 23.109375 -11.648438 23.109375 -8.984375 C 23.109375 -6.328125 22.265625 -4.078125 20.578125 -2.234375 C 18.898438 -0.390625 16.769531 0.53125 14.1875 0.53125 C 11.800781 0.53125 9.835938 -0.21875 8.296875 -1.71875 L 8.296875 9.109375 L 2.09375 9.109375 L 2.09375 -17.96875 L 8.234375 -17.96875 L 8.234375 -15.9375 L 8.296875 -15.9375 C 9.835938 -17.632812 11.800781 -18.484375 14.1875 -18.484375 C 16.769531 -18.484375 18.898438 -17.566406 20.578125 -15.734375 Z M 15.3125 -5.953125 C 16.125 -6.742188 16.53125 -7.757812 16.53125 -9 C 16.53125 -10.238281 16.144531 -11.25 15.375 -12.03125 C 14.601562 -12.8125 13.585938 -13.203125 12.328125 -13.203125 C 11.109375 -13.203125 10.109375 -12.800781 9.328125 -12 C 8.546875 -11.207031 8.15625 -10.207031 8.15625 -9 C 8.15625 -7.757812 8.554688 -6.742188 9.359375 -5.953125 C 10.171875 -5.160156 11.160156 -4.765625 12.328125 -4.765625 C 13.515625 -4.765625 14.507812 -5.160156 15.3125 -5.953125 Z M 15.3125 -5.953125 "/></g></g></g><g fill="#000000" fill-opacity="1"><g transform="translate(222.105655, 212.999986)"><g><path d="M 3.328125 -2.21875 C 1.648438 -4.050781 0.8125 -6.296875 0.8125 -8.953125 C 0.8125 -11.617188 1.648438 -13.875 3.328125 -15.71875 C 5.003906 -17.5625 7.140625 -18.484375 9.734375 -18.484375 C 12.117188 -18.484375 14.078125 -17.738281 15.609375 -16.25 L 15.609375 -17.96875 L 21.8125 -17.96875 L 21.8125 0 L 15.6875 0 L 15.6875 -2.03125 L 15.609375 -2.03125 C 14.078125 -0.320312 12.117188 0.53125 9.734375 0.53125 C 7.140625 0.53125 5.003906 -0.382812 3.328125 -2.21875 Z M 8.59375 -12 C 7.789062 -11.207031 7.390625 -10.191406 7.390625 -8.953125 C 7.390625 -7.722656 7.773438 -6.71875 8.546875 -5.9375 C 9.316406 -5.15625 10.332031 -4.765625 11.59375 -4.765625 C 12.800781 -4.765625 13.796875 -5.160156 14.578125 -5.953125 C 15.359375 -6.742188 15.75 -7.75 15.75 -8.96875 C 15.75 -10.195312 15.347656 -11.207031 14.546875 -12 C 13.742188 -12.800781 12.757812 -13.203125 11.59375 -13.203125 C 10.394531 -13.203125 9.394531 -12.800781 8.59375 -12 Z M 8.59375 -12 "/></g></g></g><g fill="#000000" fill-opacity="1"><g transform="translate(244.262766, 212.999986)"><g><path d="M 2.09375 0 L 2.09375 -17.96875 L 8.296875 -17.96875 L 8.296875 -16.078125 L 8.375 -16.078125 C 9.976562 -17.679688 11.691406 -18.484375 13.515625 -18.484375 C 14.398438 -18.484375 15.28125 -18.363281 16.15625 -18.125 C 17.03125 -17.894531 17.867188 -17.535156 18.671875 -17.046875 C 19.484375 -16.554688 20.140625 -15.863281 20.640625 -14.96875 C 21.140625 -14.070312 21.390625 -13.023438 21.390625 -11.828125 L 21.390625 0 L 15.203125 0 L 15.203125 -10.15625 C 15.203125 -11.09375 14.898438 -11.910156 14.296875 -12.609375 C 13.703125 -13.304688 12.925781 -13.65625 11.96875 -13.65625 C 11.039062 -13.65625 10.195312 -13.289062 9.4375 -12.5625 C 8.675781 -11.84375 8.296875 -11.039062 8.296875 -10.15625 L 8.296875 0 Z M 2.09375 0 "/></g></g></g><g fill="#000000" fill-opacity="1"><g transform="translate(265.649781, 212.999986)"><g><path d="M 2.6875 -27.96875 C 3.414062 -28.695312 4.28125 -29.0625 5.28125 -29.0625 C 6.289062 -29.0625 7.15625 -28.695312 7.875 -27.96875 C 8.601562 -27.25 8.96875 -26.382812 8.96875 -25.375 C 8.96875 -24.375 8.601562 -23.507812 7.875 -22.78125 C 7.15625 -22.0625 6.289062 -21.703125 5.28125 -21.703125 C 4.28125 -21.703125 3.414062 -22.0625 2.6875 -22.78125 C 1.96875 -23.507812 1.609375 -24.375 1.609375 -25.375 C 1.609375 -26.382812 1.96875 -27.25 2.6875 -27.96875 Z M 2.09375 -17.96875 L 2.09375 0 L 8.296875 0 L 8.296875 -17.96875 Z M 2.09375 -17.96875 "/></g></g></g><g fill="#000000" fill-opacity="1"><g transform="translate(274.470405, 212.999986)"><g><path d="M 3.796875 -2.125 C 1.804688 -3.90625 0.8125 -6.179688 0.8125 -8.953125 C 0.8125 -11.734375 1.847656 -14.015625 3.921875 -15.796875 C 5.992188 -17.585938 8.5625 -18.484375 11.625 -18.484375 C 14.632812 -18.484375 17.171875 -17.582031 19.234375 -15.78125 C 21.304688 -13.988281 22.34375 -11.710938 22.34375 -8.953125 C 22.34375 -6.203125 21.332031 -3.929688 19.3125 -2.140625 C 17.289062 -0.359375 14.726562 0.53125 11.625 0.53125 C 8.40625 0.53125 5.796875 -0.351562 3.796875 -2.125 Z M 8.59375 -12 C 7.789062 -11.207031 7.390625 -10.191406 7.390625 -8.953125 C 7.390625 -7.722656 7.773438 -6.71875 8.546875 -5.9375 C 9.316406 -5.15625 10.332031 -4.765625 11.59375 -4.765625 C 12.800781 -4.765625 13.796875 -5.160156 14.578125 -5.953125 C 15.359375 -6.742188 15.75 -7.75 15.75 -8.96875 C 15.75 -10.195312 15.347656 -11.207031 14.546875 -12 C 13.742188 -12.800781 12.757812 -13.203125 11.59375 -13.203125 C 10.394531 -13.203125 9.394531 -12.800781 8.59375 -12 Z M 8.59375 -12 "/></g></g></g><g fill="#000000" fill-opacity="1"><g transform="translate(295.85742, 212.999986)"><g><path d="M 2.09375 0 L 2.09375 -17.96875 L 8.296875 -17.96875 L 8.296875 -16.078125 L 8.375 -16.078125 C 9.976562 -17.679688 11.691406 -18.484375 13.515625 -18.484375 C 14.398438 -18.484375 15.28125 -18.363281 16.15625 -18.125 C 17.03125 -17.894531 17.867188 -17.535156 18.671875 -17.046875 C 19.484375 -16.554688 20.140625 -15.863281 20.640625 -14.96875 C 21.140625 -14.070312 21.390625 -13.023438 21.390625 -11.828125 L 21.390625 0 L 15.203125 0 L 15.203125 -10.15625 C 15.203125 -11.09375 14.898438 -11.910156 14.296875 -12.609375 C 13.703125 -13.304688 12.925781 -13.65625 11.96875 -13.65625 C 11.039062 -13.65625 10.195312 -13.289062 9.4375 -12.5625 C 8.675781 -11.84375 8.296875 -11.039062 8.296875 -10.15625 L 8.296875 0 Z M 2.09375 0 "/></g></g></g></svg>