<?xml version="1.0" encoding="UTF-8"?><svg id="a" xmlns="http://www.w3.org/2000/svg" xmlns:xlink="http://www.w3.org/1999/xlink" viewBox="0 0 373 100.15"><defs><clipPath id="b"><rect y=".15" width="100" height="100" fill="none"/></clipPath></defs><g clip-path="url(#b)"><path d="m50,.15C22.43.15,0,22.58,0,50.15s22.43,50,50,50,50-22.43,50-50S77.57.15,50,.15Zm-10.6,60.61c5.67,5.67,15.54,5.67,21.21,0l7.07,7.07c-4.72,4.72-10.99,7.32-17.68,7.32s-12.95-2.6-17.68-7.32c-9.74-9.75-9.74-25.61,0-35.36,4.72-4.72,10.99-7.32,17.68-7.32s12.95,2.6,17.68,7.32l-7.07,7.07c-5.67-5.67-15.54-5.67-21.21,0s-5.85,15.37,0,21.22Z" fill="#459d9e"/></g><path d="m131.2,1.63v27.65c0,3.77-1.04,6.64-3.1,8.63-2.07,1.97-5.04,2.96-8.9,2.96-1.03,0-2.04-.13-3.04-.38-.99-.25-1.83-.55-2.52-.92-.68-.36-1.29-.73-1.83-1.1s-.94-.68-1.19-.92l-.42-.38,2.79-7.33c1.83,1.74,3.5,2.6,5,2.6,1.33,0,2.4-.44,3.21-1.33.82-.89,1.23-2.25,1.23-4.08V1.63h8.77Z" fill="#fff"/><path d="m136.25,37.31c-2.66-2.38-3.98-5.41-3.98-9.1s1.38-6.75,4.15-9.13c2.76-2.39,6.19-3.58,10.27-3.58s7.4,1.2,10.15,3.6c2.76,2.39,4.15,5.43,4.15,9.1s-1.35,6.7-4.04,9.08c-2.7,2.38-6.11,3.56-10.25,3.56s-7.77-1.18-10.44-3.54Zm6.4-13.17c-1.07,1.06-1.6,2.41-1.6,4.06s.51,2.98,1.54,4.02c1.03,1.04,2.38,1.56,4.06,1.56s2.94-.53,3.98-1.58c1.04-1.05,1.56-2.4,1.56-4.02s-.54-2.98-1.6-4.04c-1.07-1.07-2.39-1.6-3.94-1.6s-2.93.54-4,1.6Z" fill="#fff"/><path d="m172.91,15.5c1.38,0,2.73.16,4.06.48,1.34.31,2.34.61,3,.92l.98.46-2.71,5.42c-1.88-.98-3.66-1.48-5.33-1.48-.93,0-1.59.1-1.98.31-.39.2-.58.57-.58,1.13,0,.13.01.25.04.38.03.13.09.24.19.35.09.11.18.21.25.29.08.07.21.16.4.25.19.08.34.16.46.21.11.04.29.11.54.21.25.1.43.17.54.21.13.04.33.11.63.21.3.1.53.16.69.19.97.28,1.81.59,2.52.94.72.33,1.48.8,2.27,1.4.79.6,1.4,1.35,1.83,2.25.44.91.67,1.93.67,3.06,0,5.46-3.79,8.19-11.35,8.19-1.71,0-3.33-.27-4.88-.79-1.54-.54-2.66-1.07-3.33-1.6l-1.02-.83,3.35-5.65c.25.22.57.48.98.77.4.29,1.13.7,2.19,1.21,1.05.52,1.98.77,2.77.77,1.71,0,2.56-.57,2.56-1.73,0-.53-.22-.94-.67-1.23-.43-.3-1.17-.64-2.21-1-1.04-.38-1.86-.72-2.46-1.04-1.49-.78-2.67-1.65-3.54-2.63-.88-.98-1.31-2.28-1.31-3.9,0-2.43.94-4.32,2.81-5.67,1.89-1.36,4.44-2.04,7.65-2.04Z" fill="#fff"/><path d="m183.13,40.15V0h8.27v18.71h.1c2.14-2.14,4.42-3.21,6.85-3.21,1.18,0,2.35.16,3.52.48,1.17.31,2.28.79,3.35,1.44,1.08.66,1.96,1.58,2.63,2.77.67,1.2,1,2.59,1,4.19v15.77h-8.25v-13.54c0-1.25-.41-2.34-1.21-3.27-.79-.93-1.83-1.4-3.1-1.4s-2.36.49-3.38,1.46c-1.02.96-1.52,2.03-1.52,3.21v13.54h-8.27Z" fill="#fff"/><path d="m219.45,16.19v11.4c0,2.36.35,4.04,1.06,5.04.72,1,1.94,1.5,3.65,1.5s2.92-.5,3.63-1.5c.72-1,1.08-2.68,1.08-5.04v-11.4h8.27v13.42c0,3.97-1.04,6.84-3.1,8.6-2.07,1.77-5.36,2.65-9.88,2.65s-7.81-.88-9.88-2.65c-2.07-1.76-3.1-4.63-3.1-8.6v-13.42h8.27Z" fill="#fff"/><path d="m241.57,37.19c-2.24-2.44-3.35-5.44-3.35-8.98s1.11-6.56,3.35-9.02c2.23-2.46,5.08-3.69,8.54-3.69,3.18,0,5.79.99,7.83,2.98v-2.29h8.27v23.96h-8.17v-2.71h-.1c-2.04,2.28-4.66,3.42-7.83,3.42-3.46,0-6.31-1.22-8.54-3.67Zm7.02-13.04c-1.07,1.06-1.6,2.41-1.6,4.06s.51,2.98,1.54,4.02c1.03,1.04,2.38,1.56,4.06,1.56s2.94-.53,3.98-1.58c1.04-1.05,1.56-2.4,1.56-4.02s-.54-2.98-1.6-4.04c-1.07-1.07-2.39-1.6-3.94-1.6s-2.93.54-4,1.6Z" fill="#fff"/><path d="m134.93,76.21c1.34,0,2.65-.2,3.9-.6,1.26-.4,2.19-.79,2.79-1.17l.88-.6,3.75,7.46c-.13.1-.3.22-.52.38-.22.16-.73.45-1.52.88-.79.42-1.64.79-2.54,1.1-.91.31-2.09.58-3.56.83-1.46.25-2.97.38-4.52.38-3.57,0-6.96-.88-10.17-2.65-3.21-1.76-5.79-4.18-7.75-7.25-1.96-3.08-2.94-6.42-2.94-10,0-2.71.57-5.3,1.71-7.79,1.15-2.5,2.69-4.63,4.6-6.4,1.92-1.78,4.15-3.19,6.71-4.25,2.55-1.05,5.17-1.58,7.83-1.58,2.5,0,4.8.3,6.9.9,2.09.58,3.58,1.17,4.46,1.75l1.31.9-3.75,7.46c-.21-.18-.54-.4-.98-.67-.43-.26-1.3-.61-2.6-1.04-1.31-.44-2.64-.67-3.98-.67-2.11,0-4.01.35-5.69,1.04-1.68.68-3.02,1.58-4,2.71-.97,1.11-1.72,2.31-2.23,3.6-.52,1.29-.77,2.6-.77,3.94,0,2.93,1.09,5.56,3.29,7.88,2.19,2.32,5.32,3.48,9.4,3.48Z" fill="#fff"/><path d="m149.51,81.31c-2.66-2.38-3.98-5.41-3.98-9.1s1.38-6.75,4.15-9.13c2.76-2.39,6.19-3.58,10.27-3.58s7.4,1.2,10.15,3.6c2.76,2.39,4.15,5.43,4.15,9.1s-1.35,6.7-4.04,9.08c-2.7,2.38-6.11,3.56-10.25,3.56s-7.77-1.18-10.44-3.54Zm6.4-13.17c-1.07,1.06-1.6,2.41-1.6,4.06s.51,2.98,1.54,4.02c1.03,1.04,2.38,1.56,4.06,1.56s2.94-.53,3.98-1.58c1.04-1.05,1.56-2.4,1.56-4.02s-.54-2.98-1.6-4.04c-1.07-1.07-2.39-1.6-3.94-1.6s-2.93.54-4,1.6Z" fill="#fff"/><path d="m175.75,84.15v-23.96h8.27v2.52h.1c2.14-2.14,4.42-3.21,6.85-3.21,1.75,0,3.38.36,4.9,1.08,1.53.71,2.68,1.81,3.46,3.29,2.43-2.92,5.07-4.38,7.94-4.38,2.55,0,4.75.72,6.58,2.15,1.83,1.43,2.75,3.68,2.75,6.73v15.77h-8.25v-13.54c0-1.28-.35-2.34-1.06-3.19-.7-.86-1.74-1.29-3.15-1.29-1.21,0-2.14.37-2.77,1.1-.64.72-.99,1.6-1.06,2.63v14.29h-8.25v-13.54c0-1.28-.35-2.34-1.06-3.19-.7-.86-1.74-1.29-3.15-1.29-1.28,0-2.24.4-2.88,1.19-.64.79-.96,1.74-.96,2.83v14h-8.27Z" fill="#fff"/><path d="m244.04,63.17c2.25,2.45,3.38,5.45,3.38,9s-1.13,6.54-3.38,9c-2.24,2.46-5.08,3.69-8.52,3.69-3.18,0-5.8-1-7.85-3v14.44h-8.27v-36.1h8.19v2.71h.08c2.05-2.26,4.67-3.4,7.85-3.4,3.44,0,6.28,1.22,8.52,3.67Zm-7.02,13.04c1.08-1.05,1.63-2.41,1.63-4.06s-.52-3-1.54-4.04c-1.03-1.04-2.39-1.56-4.06-1.56s-2.96.54-4,1.6c-1.04,1.06-1.56,2.39-1.56,4s.53,3.01,1.6,4.06c1.08,1.06,2.4,1.58,3.96,1.58s2.91-.53,3.98-1.58Z" fill="#fff"/><path d="m250.58,81.19c-2.24-2.44-3.35-5.44-3.35-8.98s1.11-6.56,3.35-9.02c2.23-2.46,5.08-3.69,8.54-3.69,3.18,0,5.79.99,7.83,2.98v-2.29h8.27v23.96h-8.17v-2.71h-.1c-2.04,2.28-4.66,3.42-7.83,3.42-3.46,0-6.31-1.22-8.54-3.67Zm7.02-13.04c-1.07,1.06-1.6,2.41-1.6,4.06s.51,2.98,1.54,4.02c1.03,1.04,2.38,1.56,4.06,1.56s2.94-.53,3.98-1.58c1.04-1.05,1.56-2.4,1.56-4.02s-.54-2.98-1.6-4.04c-1.07-1.07-2.39-1.6-3.94-1.6s-2.93.54-4,1.6Z" fill="#fff"/><path d="m278.48,84.15v-23.96h8.27v2.52h.1c2.14-2.14,4.42-3.21,6.85-3.21,1.18,0,2.35.16,3.52.48,1.17.31,2.28.79,3.35,1.44,1.08.66,1.96,1.58,2.63,2.77.67,1.2,1,2.59,1,4.19v15.77h-8.25v-13.54c0-1.25-.41-2.34-1.21-3.27-.79-.93-1.83-1.4-3.1-1.4s-2.36.49-3.38,1.46c-1.02.96-1.52,2.03-1.52,3.21v13.54h-8.27Z" fill="#fff"/><path d="m307.78,46.85c.97-.97,2.13-1.46,3.46-1.46s2.5.49,3.46,1.46c.97.96,1.46,2.11,1.46,3.46s-.49,2.49-1.46,3.46c-.96.96-2.11,1.44-3.46,1.44s-2.49-.48-3.46-1.44c-.96-.97-1.44-2.13-1.44-3.46s.48-2.5,1.44-3.46Zm-.79,13.33v23.96h8.27v-23.96h-8.27Z" fill="#fff"/><path d="m321.02,81.31c-2.66-2.38-3.98-5.41-3.98-9.1s1.38-6.75,4.15-9.13c2.76-2.39,6.19-3.58,10.27-3.58s7.4,1.2,10.15,3.6c2.76,2.39,4.15,5.43,4.15,9.1s-1.35,6.7-4.04,9.08c-2.7,2.38-6.11,3.56-10.25,3.56s-7.77-1.18-10.44-3.54Zm6.4-13.17c-1.07,1.06-1.6,2.41-1.6,4.06s.51,2.98,1.54,4.02c1.03,1.04,2.38,1.56,4.06,1.56s2.94-.53,3.98-1.58c1.04-1.05,1.56-2.4,1.56-4.02s-.54-2.98-1.6-4.04c-1.07-1.07-2.39-1.6-3.94-1.6s-2.93.54-4,1.6Z" fill="#fff"/><path d="m347.27,84.15v-23.96h8.27v2.52h.1c2.14-2.14,4.42-3.21,6.85-3.21,1.18,0,2.35.16,3.52.48,1.17.31,2.28.79,3.35,1.44,1.08.66,1.96,1.58,2.63,2.77.67,1.2,1,2.59,1,4.19v15.77h-8.25v-13.54c0-1.25-.41-2.34-1.21-3.27-.79-.93-1.83-1.4-3.1-1.4s-2.36.49-3.38,1.46c-1.02.96-1.52,2.03-1.52,3.21v13.54h-8.27Z" fill="#fff"/></svg>