<svg width="674" height="176" viewBox="0 0 674 176" fill="none" xmlns="http://www.w3.org/2000/svg">
<path d="M72.8238 11C-24.2822 12.5977 -24.268 145.076 72.827 146.667C169.932 145.066 169.916 12.5809 72.8238 11ZM57.153 93.2251C61.3742 96.9275 66.9867 98.9927 72.8238 98.9927C78.6609 98.9927 84.2735 96.9275 88.4949 93.2251L98.9469 102.814C85.2091 115.971 60.449 115.976 46.7081 102.814C12.969 70.7063 64.0955 23.8682 98.9469 54.8445L88.4949 64.4399C67.791 46.1179 36.7535 74.2034 57.153 93.2251Z" fill="#3B8D99"/>
<path d="M463.902 155.526C463.925 155.586 463.897 155.597 464.062 155.579C464.055 155.526 464.086 155.506 463.902 155.526ZM420.913 144.047C420.823 143.995 420.867 143.976 420.662 144.054C420.732 144.054 420.815 144.047 420.913 144.047ZM417.628 167.246C417.628 167.264 417.613 167.285 417.613 167.31C417.703 167.31 417.794 167.324 417.887 167.33V167.264C417.802 167.25 417.716 167.243 417.628 167.246ZM653.704 153.837V153.739C653.585 153.732 653.455 153.732 653.334 153.732C653.357 153.869 653.287 153.83 653.706 153.835L653.704 153.837ZM397.632 167.585V167.486C397.305 167.507 397.238 167.56 397.632 167.585ZM644.912 155.833C644.782 155.682 644.762 155.721 644.798 155.872C644.834 155.854 644.873 155.842 644.912 155.833ZM422.27 169.308V169.354H422.612V169.308H422.27ZM430.397 167.211C430.244 167.165 430.197 167.172 430.334 167.303C430.358 167.275 430.378 167.243 430.397 167.211ZM434.606 167.108C434.523 167.074 434.544 167.069 434.492 167.133C434.536 167.147 434.567 167.165 434.606 167.172V167.108ZM451.931 166.957C451.902 166.929 451.879 166.897 451.84 166.858C451.817 166.89 451.786 166.916 451.75 166.936C451.879 167.055 451.833 167.035 451.934 166.957H451.931ZM398.74 172.51C398.714 172.48 398.683 172.452 398.649 172.429C398.602 172.475 398.587 172.457 398.693 172.555C398.701 172.535 398.724 172.528 398.74 172.51ZM420.018 173.511V173.438C419.927 173.438 419.836 173.451 419.751 173.451V173.497C419.842 173.495 419.93 173.5 420.018 173.511ZM418.744 165.497C418.721 165.504 418.697 165.515 418.674 165.522C418.697 165.543 418.728 165.575 418.752 165.596C418.767 165.575 418.788 165.557 418.796 165.543L418.744 165.497ZM425.229 167.25C425.123 167.408 425.17 167.422 425.343 167.324C425.304 167.303 425.265 167.278 425.229 167.25ZM400.614 153.267C400.591 153.228 400.56 153.189 400.536 153.15C400.409 153.28 400.409 153.228 400.523 153.358C400.554 153.331 400.585 153.299 400.614 153.267ZM623.96 160.71C623.96 160.685 623.952 160.664 623.952 160.646C623.779 160.685 623.818 160.685 623.823 160.744C623.869 160.731 623.916 160.724 623.96 160.71ZM572.656 159.218V159.257C572.749 159.268 572.842 159.273 572.938 159.271V159.218H572.656ZM392.436 153.693C392.648 153.83 392.55 153.837 392.806 153.693H392.436ZM403.633 163.265C403.664 163.238 403.7 163.219 403.747 163.185C403.526 163.082 403.586 163.086 403.503 163.206C403.55 163.224 403.586 163.244 403.633 163.263V163.265ZM393.58 153.574C393.58 153.62 393.595 153.659 393.595 153.711C393.694 153.693 393.784 153.672 393.878 153.654C393.878 153.62 393.87 153.594 393.87 153.562C393.772 153.558 393.676 153.562 393.58 153.574ZM625.94 160.946C625.909 160.77 625.865 160.808 625.803 160.946H625.94ZM387.657 153.817C387.641 153.83 387.618 153.835 387.594 153.856C387.724 153.968 387.708 153.934 387.755 153.895C387.721 153.872 387.688 153.844 387.657 153.817ZM414.747 163.361C414.897 163.244 414.874 163.297 414.762 163.178C414.609 163.297 414.633 163.244 414.747 163.361ZM613.006 141.456C612.996 141.417 612.988 141.378 612.983 141.339C612.825 141.364 612.665 141.385 612.515 141.405C612.515 141.444 612.527 141.483 612.527 141.522C612.688 141.501 612.846 141.481 613.006 141.456ZM394.126 168.403C394.087 168.382 394.049 168.359 394.015 168.332C393.922 168.488 393.968 168.508 394.126 168.403ZM606.816 166.033C606.824 166.033 606.824 166.027 606.824 166.008C606.796 166.015 606.702 165.994 606.682 166.033H606.816ZM443.072 139.714C443.077 139.751 443.08 139.787 443.08 139.826C443.445 139.792 443.445 139.735 443.072 139.714ZM474.729 140.317C474.819 140.376 474.78 140.395 474.956 140.278C474.881 140.296 474.806 140.307 474.729 140.317ZM469.093 140.965C468.979 140.814 468.932 140.814 468.955 140.983C469.002 140.981 469.046 140.974 469.093 140.965ZM455.838 142.457C455.827 142.425 455.819 142.393 455.817 142.358C455.687 142.365 455.566 142.386 455.436 142.397V142.443C455.571 142.441 455.705 142.446 455.84 142.457H455.838ZM392.534 149.529C392.762 149.201 392.57 149.162 392.306 149.318C392.373 149.378 392.436 149.437 392.534 149.529ZM380.418 153.319C380.586 153.404 380.532 153.404 380.63 153.28C380.465 153.2 380.519 153.2 380.418 153.319ZM426.738 167.578C426.625 167.677 426.617 167.638 426.738 167.743C426.78 167.706 426.819 167.667 426.852 167.624C426.819 167.603 426.78 167.587 426.738 167.578ZM386.836 153.778C386.815 153.817 386.787 153.856 386.753 153.888C386.911 153.954 386.859 153.968 386.958 153.835C386.919 153.814 386.88 153.794 386.836 153.778ZM462.235 155.682C462.245 155.721 462.253 155.76 462.255 155.799C462.354 155.781 462.463 155.76 462.574 155.742C462.53 155.584 462.597 155.604 462.235 155.682ZM445.195 156.704C445.195 156.665 445.187 156.626 445.187 156.587C445.06 156.599 444.946 156.606 444.824 156.626C444.83 156.658 444.837 156.693 444.848 156.725C444.962 156.718 445.083 156.718 445.197 156.704H445.195ZM441.032 157.018C440.941 156.901 441.001 156.913 440.804 156.952C440.894 157.071 440.843 157.071 441.032 157.018ZM372.931 155.897C372.936 155.955 372.939 156.012 372.939 156.069C373.099 156.049 373.249 156.035 373.41 156.017C373.41 155.978 373.394 155.939 373.394 155.9L372.931 155.897ZM587.586 165.385V165.346H587.288C587.288 165.36 587.273 165.367 587.273 165.38C587.382 165.378 587.48 165.378 587.586 165.385ZM539.777 164.986C539.816 164.952 539.863 164.933 539.891 164.908C539.816 164.856 539.8 164.874 539.686 164.908C539.71 164.933 539.749 164.954 539.78 164.986H539.777ZM573.984 170.669C573.976 170.624 573.961 170.585 573.953 170.532C573.839 170.571 573.725 170.61 573.619 170.649C573.635 170.679 573.642 170.708 573.642 170.74C573.756 170.722 573.87 170.688 573.984 170.669ZM404.8 163.866V163.925C404.922 163.927 405.044 163.923 405.165 163.911V163.866H404.8ZM532.722 166.499C532.942 166.34 532.883 166.379 532.829 166.269C532.603 166.4 532.647 166.361 532.722 166.499ZM435.287 167.067C435.113 166.968 435.173 166.975 435.067 167.094C435.243 167.193 435.183 167.186 435.29 167.067H435.287ZM375.799 169.288C375.799 169.333 375.784 169.372 375.784 169.425C375.898 169.432 376.027 169.432 376.141 169.432C376.146 169.409 376.149 169.388 376.149 169.365C376.035 169.333 375.913 169.313 375.799 169.288ZM592.055 172.922C591.956 173.046 591.956 173 592.055 173.117C592.093 173.078 592.137 173.025 592.168 172.986C592.137 172.968 592.091 172.94 592.055 172.922ZM414.154 166.753C414.291 166.897 414.216 166.89 414.405 166.792C414.322 166.774 414.239 166.76 414.154 166.753ZM432.307 167.271C432.157 167.106 432.079 167.172 432.11 167.363C432.17 167.33 432.24 167.303 432.307 167.271ZM490.182 140.67C490.021 140.61 490.076 140.596 489.977 140.715C490.135 140.789 490.076 140.793 490.182 140.67ZM440.682 139.845V139.943C440.796 139.943 440.918 139.929 441.032 139.929V139.845H440.682ZM465.877 141.886C465.882 141.857 465.885 141.827 465.882 141.795C465.52 141.696 465.657 141.71 465.406 141.829C465.422 141.854 465.435 141.88 465.445 141.907C465.587 141.893 465.725 141.893 465.875 141.886H465.877ZM626.342 145.088C626.308 145.154 626.28 145.221 626.259 145.292C626.435 145.331 626.601 145.37 626.777 145.409C626.797 145.349 626.805 145.303 626.828 145.251C626.66 145.193 626.502 145.134 626.342 145.09V145.088ZM557.431 166.047C557.47 166.027 557.511 166.008 557.552 165.994C557.529 165.955 557.506 165.928 557.485 165.889C557.436 165.921 557.382 165.946 557.325 165.967C557.358 165.997 557.394 166.022 557.431 166.047ZM401.523 163.481C401.455 163.354 401.523 163.343 401.251 163.414C401.31 163.513 401.243 163.533 401.523 163.481ZM410.923 172.45C410.894 172.475 410.866 172.496 410.832 172.514C410.892 172.594 410.962 172.665 411.029 172.743C411.052 172.714 411.083 172.688 411.12 172.672C411.06 172.594 410.995 172.519 410.923 172.45ZM390.805 153.562C390.758 153.617 390.704 153.67 390.644 153.718L390.919 153.895C390.965 153.849 391.009 153.81 391.053 153.757C390.965 153.698 390.882 153.631 390.805 153.562ZM421.271 172.299C421.271 172.333 421.255 172.372 421.255 172.411C421.369 172.418 421.483 172.436 421.612 172.45C421.612 172.411 421.62 172.372 421.62 172.333C421.504 172.319 421.385 172.312 421.271 172.299ZM628.604 160.843V160.946C628.708 160.967 628.814 160.978 628.923 160.987C628.92 160.925 628.925 160.863 628.938 160.804C628.822 160.808 628.716 160.829 628.602 160.841L628.604 160.843ZM593.556 173.236C593.548 173.296 593.533 173.353 593.525 173.412C593.639 173.399 593.753 173.399 593.867 173.394C593.843 173.215 593.913 173.261 593.556 173.236ZM624.939 161.844V161.824C624.794 161.824 624.643 161.812 624.483 161.812V161.844H624.939ZM576.366 161.418C576.374 161.358 576.389 161.313 576.397 161.255C575.871 161.221 575.851 161.313 576.366 161.418ZM414.874 168.071C414.874 168.039 414.876 168.009 414.881 167.979C414.739 167.972 414.586 167.958 414.441 167.952C414.428 167.986 414.423 168.023 414.428 168.057C414.576 168.055 414.726 168.059 414.874 168.071ZM428.118 153.241V153.182H427.673L427.665 153.207C427.823 153.221 427.968 153.228 428.121 153.239L428.118 153.241ZM418.516 170.511V170.394C418.34 170.394 418.159 170.394 417.978 170.388V170.525C418.159 170.525 418.343 170.511 418.516 170.511ZM382.634 159.317C382.331 159.2 382.43 159.193 382.285 159.376C382.512 159.525 382.422 159.525 382.634 159.317ZM431.608 155.95C431.613 155.9 431.621 155.849 431.631 155.799C431.51 155.799 431.38 155.794 431.261 155.794V155.872C431.375 155.897 431.489 155.918 431.611 155.95H431.608ZM439.157 139.851C439.437 140.028 439.315 140.048 439.613 139.865C439.499 139.865 439.385 139.865 439.157 139.851ZM393.847 163.435V163.393C393.647 163.393 393.466 163.393 393.277 163.382V163.46C393.466 163.453 393.665 163.442 393.847 163.435ZM405.724 152.579C405.732 152.618 405.735 152.657 405.732 152.696C405.846 152.689 405.976 152.689 406.089 152.675C406.079 152.616 406.064 152.559 406.043 152.499C405.939 152.533 405.841 152.554 405.727 152.579H405.724ZM588.435 170.729V170.663C588.231 170.663 588.026 170.663 587.661 170.649C588.026 170.688 588.231 170.708 588.435 170.729ZM619.88 154.032C619.818 154.105 619.774 154.151 619.727 154.204C619.857 154.268 619.789 154.3 620.038 154.17L619.88 154.032ZM418.068 167.853C418.092 167.913 418.115 167.958 418.136 168.018C418.244 167.972 418.356 167.913 418.457 167.86C418.444 167.825 418.428 167.789 418.41 167.757C418.296 167.782 418.182 167.821 418.068 167.853ZM422.796 170.08C422.796 170.133 422.78 170.179 422.78 170.236C422.938 170.236 423.114 170.236 423.272 170.25V170.138L422.796 170.08ZM403.526 153.129C403.495 153.065 403.472 152.999 403.451 152.932C403.314 152.992 403.177 153.044 403.047 153.104C403.066 153.141 403.081 153.18 403.094 153.221C403.244 153.189 403.381 153.161 403.526 153.129ZM442.67 166.978C442.466 166.76 442.572 166.76 442.321 166.89C442.481 167.108 442.388 167.067 442.67 166.975V166.978ZM599.624 173.825C599.624 173.864 599.632 173.903 599.632 173.942C599.86 173.928 600.08 173.924 600.292 173.903C600.199 173.836 600.09 173.795 599.971 173.781C599.852 173.768 599.733 173.781 599.624 173.825ZM650.737 157C650.737 157.018 650.724 157.039 650.724 157.05C650.905 157.057 651.086 157.057 651.262 157.057V157.039C651.089 157.032 650.905 157.018 650.739 156.997L650.737 157ZM652.901 155.205C652.912 155.141 652.927 155.077 652.953 155.015C652.246 154.91 652.422 154.898 652.262 155.153C652.5 155.171 652.697 155.192 652.901 155.205ZM374.622 165.525C374.653 165.486 374.689 165.451 374.728 165.419C374.099 165.066 374.272 165.105 374.031 165.302C374.259 165.385 374.44 165.458 374.624 165.522L374.622 165.525ZM523.62 137.887C524.143 138.176 523.954 138.144 524.34 138.039C524.329 138.002 524.321 137.965 524.316 137.929C524.143 137.92 523.985 137.906 523.62 137.887ZM620.706 165.917C620.38 166.093 620.196 166.192 619.924 166.329C620.38 166.544 620.54 166.386 620.706 165.917ZM631.439 149.55C631.538 150.104 631.825 149.987 632.281 149.864C631.942 149.731 631.745 149.667 631.439 149.547V149.55ZM587.335 171.547C587.037 171.416 587.151 171.41 586.903 171.533C587.107 171.769 586.993 171.742 587.335 171.547ZM546.552 166.171C546.555 166.123 546.563 166.075 546.575 166.029C546.431 166.017 546.286 166.013 546.143 166.015V166.132C546.278 166.15 546.415 166.164 546.552 166.171ZM608.098 168.227C608.318 167.626 608.302 167.605 607.792 167.461C607.886 167.697 607.961 167.88 608.098 168.227ZM431.305 154.289C431.29 154.243 431.282 154.183 431.259 154.131C431.077 154.183 430.881 154.222 430.697 154.268C430.702 154.302 430.71 154.335 430.72 154.367C430.919 154.339 431.108 154.307 431.305 154.289ZM456.021 154.085C456.019 154.128 456.021 154.17 456.027 154.211C456.278 154.211 456.544 154.204 456.793 154.19C456.795 154.138 456.793 154.085 456.78 154.034C456.529 154.053 456.272 154.064 456.021 154.085ZM590.519 161.615C590.519 161.65 590.527 161.675 590.527 161.707C590.755 161.714 590.983 161.714 591.211 161.727V161.675C590.985 161.654 590.757 161.633 590.522 161.615H590.519ZM652.681 159.906V159.979C653.036 159.986 653.401 159.997 653.766 159.997V159.926C653.401 159.919 653.046 159.919 652.681 159.906ZM431.518 167.253C431.52 167.198 431.528 167.143 431.541 167.088C431.401 167.09 431.261 167.085 431.124 167.076V167.207C431.246 167.225 431.383 167.232 431.518 167.25V167.253ZM421.48 170.218C421.473 170.271 421.457 170.31 421.452 170.355C421.571 170.355 421.685 170.355 421.801 170.349V170.239C421.693 170.239 421.587 170.229 421.483 170.218H421.48ZM417.38 168.096C417.38 168.05 417.374 168.004 417.364 167.958C417.18 167.972 416.999 167.979 416.818 167.993V168.089C417.015 168.089 417.196 168.089 417.38 168.096ZM376.392 164.993C376.755 165.307 376.755 165.307 377.218 165.151C376.892 165.092 376.641 165.046 376.39 164.993H376.392ZM396.358 168.451C396.236 168.568 396.19 168.621 396.146 168.66C396.213 168.705 396.267 168.758 396.334 168.804C396.495 168.607 396.472 168.705 396.358 168.449V168.451ZM483.316 154.701C483.326 154.745 483.334 154.788 483.339 154.832C483.603 154.779 483.854 154.722 484.113 154.676C484.113 154.642 484.106 154.623 484.106 154.603C483.839 154.635 483.583 154.674 483.316 154.701ZM651.353 155.192C651.545 155.205 652.316 155.265 652.044 155.008C651.876 154.839 651.679 154.811 651.353 155.192ZM371.347 156.567C371.323 156.619 371.3 156.679 371.271 156.736C371.406 156.764 371.543 156.796 371.681 156.821C371.688 156.782 371.704 156.743 371.712 156.704C371.59 156.658 371.476 156.606 371.347 156.567ZM447.646 166.446C447.532 166.524 447.473 166.563 447.418 166.604C447.488 166.696 447.556 166.78 447.631 166.872C447.807 166.675 447.812 166.78 447.646 166.446ZM435.561 140.658C435.551 140.715 435.543 140.775 435.541 140.835C435.836 140.873 436.131 140.906 436.411 140.945C436.423 140.894 436.431 140.841 436.434 140.789C436.139 140.747 435.856 140.708 435.561 140.656V140.658ZM508.009 137.961C508.032 138.607 508.708 138.222 508.594 138.046C508.441 137.803 508.229 137.867 508.009 137.958V137.961ZM563.825 173.614C564.312 173.811 564.312 173.811 564.677 173.536C564.356 173.568 564.144 173.589 563.825 173.614ZM409.96 170.729C409.968 170.786 409.983 170.86 409.991 170.917C410.278 170.878 410.56 170.846 410.856 170.807C410.848 170.747 410.832 170.683 410.825 170.624C410.535 170.663 410.239 170.701 409.96 170.729ZM433.537 167.292C433.174 167.035 433.317 167.049 432.967 167.207C433.286 167.528 433.149 167.479 433.537 167.292ZM646.074 152.71C645.67 152.533 645.67 152.533 645.217 152.788C645.619 152.756 645.846 152.737 646.074 152.71ZM654.198 159.507V159.31C653.97 159.158 653.743 159.14 653.403 159.486C653.766 159.493 653.978 159.493 654.198 159.507ZM519.151 137.803C519.151 137.725 519.136 137.645 519.136 137.567C518.955 137.537 518.768 137.541 518.587 137.578C518.406 137.617 518.238 137.686 518.09 137.782C518.447 137.782 518.797 137.789 519.151 137.803ZM424.419 167.796C424.872 168.096 424.872 168.096 425.138 167.715C424.887 167.736 424.667 167.761 424.419 167.796ZM406.825 170.963C406.211 170.761 406.211 170.761 406.03 171.121C406.281 171.061 406.486 171.022 406.825 170.963ZM420.178 170.172C419.137 170.296 419.357 170.218 419.223 170.374C419.609 170.486 419.609 170.486 420.178 170.172ZM585.197 171.336C585.266 171.501 585.782 171.87 585.833 171.488C585.758 171.41 585.657 171.352 585.543 171.325C585.43 171.297 585.308 171.302 585.197 171.336ZM649.29 152.973C648.994 152.593 648.736 152.928 648.441 152.966C648.72 152.966 649.018 152.971 649.29 152.971V152.973ZM440.524 156.344C441.032 156.521 441.032 156.507 441.417 156.253C441.115 156.285 440.819 156.31 440.524 156.344ZM634.08 155.086C634.09 155.043 634.098 154.999 634.103 154.956C633.694 154.818 633.883 154.818 633.397 154.93C633.399 154.969 633.407 155.008 633.42 155.047C633.632 155.054 633.86 155.068 634.08 155.086ZM618.044 141.751C617.239 141.515 617.239 141.515 616.83 141.731C617.307 141.737 617.672 141.751 618.044 141.751ZM438.36 141.378C438.347 141.442 438.324 141.515 438.316 141.575C438.816 141.66 438.709 141.678 438.756 141.442C438.634 141.423 438.497 141.396 438.36 141.378ZM413.312 170.786C412.826 170.525 412.826 170.525 412.585 170.779C412.849 170.779 413.077 170.786 413.312 170.786ZM502.448 138.039C502.865 138.201 503.289 138.431 503.698 137.997C503.274 138.004 502.865 138.025 502.448 138.039ZM631.426 161.805C631.377 161.739 631.31 161.686 631.23 161.647C631.152 161.611 631.064 161.59 630.973 161.59C630.885 161.588 630.795 161.606 630.714 161.64C630.634 161.677 630.567 161.727 630.515 161.792C630.826 161.792 631.121 161.803 631.426 161.803V161.805ZM425.661 169.996C425.661 170.035 425.646 170.074 425.646 170.119C425.957 170.119 426.254 170.133 426.557 170.133V170.003C426.262 170 425.964 169.993 425.661 169.993V169.996ZM630.538 155.185C631.085 155.029 631.517 154.896 632.063 154.733C631.463 154.733 630.991 154.701 630.538 155.185ZM513.174 138.398C512.985 138.195 512.824 138.004 512.666 137.828C512.49 137.94 512.348 138.039 512.242 138.103C512.469 138.673 512.832 138.437 513.174 138.398ZM583.928 170.944C583.837 171.822 583.928 171.946 584.498 171.742C584.316 171.494 584.156 171.258 583.928 170.944ZM440.387 167.028C439.68 166.753 439.613 166.78 439.46 167.44C439.75 167.31 440.006 167.193 440.387 167.028ZM464.813 140.945C465.202 140.775 465.611 141.336 466.058 140.885C465.872 140.775 465.649 140.722 465.424 140.731C465.199 140.743 464.984 140.816 464.813 140.945ZM433.423 172.849V173.078C434.673 173.096 434.606 173.124 434.818 172.743C434.332 172.785 433.879 172.824 433.423 172.849ZM411.72 168.245C412.173 168.424 412.173 168.424 412.699 168.128C412.129 167.99 412.129 167.99 411.72 168.247V168.245ZM647.509 160.043C648.13 160.1 648.759 160.174 649.396 160.231C649.396 160.181 649.404 160.135 649.404 160.082C648.782 159.977 648.169 159.702 647.509 160.043ZM417.105 170.603C417.103 170.546 417.105 170.488 417.113 170.433C416.538 170.282 415.917 170.33 415.384 170.571C415.953 170.585 416.52 170.589 417.105 170.603ZM412.15 172.411C412.15 172.468 412.145 172.528 412.145 172.592C412.572 172.869 413.248 172.972 413.349 172.358C412.88 172.377 412.515 172.39 412.15 172.411ZM423.932 167.997C424.054 167.663 424.137 167.427 423.759 167.193C423.567 167.468 423.075 167.468 423.098 167.99C423.386 167.99 423.637 167.997 423.932 167.997ZM582.382 171.1C582.442 171.339 582.582 171.556 582.781 171.726C582.983 171.898 583.237 172.015 583.511 172.063C583.405 171.435 582.882 171.272 582.382 171.1ZM405.976 169.189C407.213 169.267 406.781 169.333 407.555 168.802C407.28 168.692 406.972 168.671 406.682 168.742C406.392 168.813 406.141 168.971 405.976 169.189ZM536.903 166.111C537.25 166.292 537.644 166.393 538.048 166.402C538.454 166.412 538.853 166.329 539.21 166.164C538.382 166.146 537.639 166.132 536.903 166.111ZM378.256 169.817C377.301 169.799 376.444 169.778 375.603 169.764C375.595 169.838 375.595 169.895 375.595 169.961C376.071 170.06 377.808 170.31 378.256 169.817ZM399.011 173.458C399.612 173.509 400.197 173.555 400.749 173.607C400.523 173.36 400.316 173.156 400.112 172.94C399.408 173.025 399.408 173.025 399.011 173.458ZM384.107 164.894C382.945 164.592 382.155 164.574 381.762 164.855C382.559 165.405 383.333 164.966 384.105 164.894H384.107ZM529.688 166.027C529.675 166.104 529.667 166.182 529.644 166.263C531.904 166.563 531.405 166.524 531.829 166.418C531.13 165.779 530.372 166.146 529.688 166.027ZM404.026 173.261C405.028 173.49 405.999 173.078 406.985 173.096C405.96 172.626 405.02 173.293 404.026 173.261ZM402.548 170.997C403.177 171.449 402.592 171.428 404.733 171.16C404.049 170.722 403.389 170.938 402.548 170.997ZM399.014 168.882C398.675 168.648 398.434 168.323 398.331 167.958C397.694 167.979 397.784 168.43 397.678 168.861C398.111 168.875 398.488 168.875 399.011 168.882H399.014ZM533.468 166.065C533.452 166.125 533.445 166.182 533.429 166.228C533.807 166.375 534.224 166.43 534.633 166.386C535.045 166.345 535.436 166.21 535.764 165.994C534.998 166.013 534.226 166.047 533.468 166.065ZM508.85 137.906V138.117C509.479 138.24 510.095 138.371 510.779 138.515C510.898 138.3 511.027 138.062 511.149 137.842C511.118 137.782 511.097 137.725 511.059 137.665C510.344 137.965 509.557 137.475 508.85 137.906ZM401.546 172.947C402.944 174.389 403.089 172.748 404.642 172.849C403.754 172.313 402.822 173.046 402.069 172.514C401.903 172.665 401.743 172.789 401.546 172.947ZM540.235 166.439C544.696 166.164 544.574 166.386 545.514 166.065C541.227 165.988 540.908 165.85 540.233 166.439H540.235ZM524.044 138.35C523.734 138.318 523.477 138.3 523.281 138.279C523.112 138.018 522.96 137.782 522.703 137.37C522.271 138.371 521.316 137.684 520.731 138.142C520.958 138.822 521.525 138.628 524.044 138.353V138.35ZM419.003 167.663C419.003 167.722 418.995 167.793 418.995 167.86C419.684 168.488 420.753 167.599 421.664 168.068C421.822 168.155 422.009 168.192 422.195 168.176C422.381 168.158 422.555 168.089 422.689 167.977C420.745 166.379 422.909 167.617 419.003 167.663ZM381.404 160.252C382.784 158.831 378.639 158.787 378.287 159.663C378.673 159.67 379.061 159.683 379.447 159.683C379.608 159.867 379.781 160.043 379.926 160.194C380.449 160.174 380.897 159.729 381.404 160.252ZM421.405 143.539C422.089 143.5 437.275 142.425 438.029 141.953C437.959 141.808 437.891 141.66 437.845 141.579C436.442 141.217 435.315 141.616 433.969 141.187C434.197 141.082 434.355 141.011 434.523 140.933C433.599 140.704 432.613 140.75 431.725 141.064C431.474 140.433 430.539 140.906 428.696 140.553C433.035 140.631 432.649 140.807 432.695 140.003C432.861 139.904 433.053 139.845 433.255 139.831C433.457 139.817 433.659 139.849 433.84 139.925C433.816 140.048 433.809 140.158 433.772 140.337C434.114 140.323 434.425 140.323 434.857 140.303C434.637 140.179 434.539 140.108 434.386 140.01C434.523 139.925 434.637 139.845 434.795 139.728C434.5 139.629 434.228 139.537 433.785 139.393C436.612 139.308 439.442 139.512 442.215 140.003C442.191 139.872 442.168 139.753 442.14 139.57C442.419 139.402 442.761 139.324 443.1 139.35C443.442 139.375 443.76 139.501 444.004 139.707C444.05 139.556 444.081 139.471 444.141 139.276C480.926 139.471 490.795 137.376 499.442 137.828C498.997 137.842 498.541 137.849 498.055 137.867C497.922 138.167 500.91 138.295 502.129 137.961C504.654 137.179 505.883 138.215 506.619 137.317C508.151 137.535 515.638 136.799 515.177 137.986C514.942 138.039 514.631 138.096 514.235 138.176C514.691 138.47 515.123 138.183 515.488 138.36C515.654 138.195 515.807 138.039 516.063 137.764C516.078 138.039 516.078 138.156 516.086 138.332C517.451 138.593 518.874 138.509 520.182 138.085C516.467 138.236 518.696 138.332 515.579 137.514C518.106 136.533 520.472 138.55 521.997 137.587C521.572 137.528 521.29 137.489 521.002 137.45V137.457C522.737 137.062 524.56 137.056 526.297 137.436C525.427 137.379 524.552 137.399 523.687 137.496C533.657 140.204 580.241 136.251 580.741 135.935C583.04 136.237 586.196 134.856 586.75 136.453C592.645 136.985 592.099 136.886 592.546 137.475C592.637 137.415 592.728 137.358 592.803 137.299C593.01 137.493 593.113 138.018 593.502 137.585C594.799 137.947 596.122 138.236 597.463 138.451C597.152 138.529 596.992 138.575 596.756 138.635C597.393 139.256 601.633 138.882 601.83 138.889C601.589 138.91 601.354 138.928 601.103 138.949C601.962 139.187 602.848 139.35 603.743 139.439C603.516 139.492 603.272 139.537 603.037 139.59V139.735C606.503 140.081 615.813 141.121 619.083 141.375C618.906 141.632 618.293 141.456 618.694 142.012C616.921 142.212 616.584 141.291 615.145 141.579C615.404 141.614 615.676 141.653 616.061 141.696C615.168 142.2 615.562 141.396 613.377 141.357V141.533C613.651 141.559 613.938 141.598 614.218 141.639C614.218 141.66 614.223 141.68 614.234 141.696C613.742 141.77 613.255 141.847 612.763 141.914C612.763 141.946 612.755 141.971 612.755 142.006C612.807 142.01 622.958 143.064 623.111 143.163C622.655 143.229 622.2 143.3 621.744 143.367C621.731 143.397 621.726 143.426 621.728 143.458C623.189 143.69 624.628 143.995 626.047 144.368C625.226 144.348 624.416 144.343 623.595 144.322C624.506 145.166 625.41 144.597 628.33 145.173C628.079 145.207 627.843 145.232 627.592 145.253C627.582 145.303 627.577 145.356 627.579 145.409C630.308 145.821 637.158 146.444 643.41 147.256C642.978 147.315 642.727 147.354 642.463 147.393V147.471L643.281 147.648V147.746C643.069 147.799 642.849 147.838 642.478 147.916C644.234 148.493 646.061 148.887 647.923 149.096C646.183 148.903 644.415 148.984 642.704 149.33C642.887 149.449 642.986 149.515 643.159 149.632C642.416 149.829 643.167 149.488 641.186 149.476C640.133 149.469 640.847 149.114 640.293 149.103C639.838 149.082 639.366 149.082 638.812 149.075C638.911 149.24 638.981 149.357 639.04 149.469H639.048C637.456 149.353 638.297 150.077 636.56 149.417C636.423 149.515 636.286 149.607 636.151 149.692C636.423 149.882 635.923 149.744 638.336 149.96C639.229 150.038 638.843 150.673 640.141 150.496C642.722 150.771 642.639 151.284 645.717 151C645.735 151.048 645.751 151.094 645.764 151.145C645.505 151.275 645.238 151.413 644.982 151.536C644.979 151.589 644.987 151.642 645.005 151.695C648.264 151.832 651.503 152.219 654.685 152.854C653.012 152.999 651.327 152.939 649.678 152.675C650.763 153.599 652.316 153.2 655.154 153.81C655.024 153.81 654.895 153.817 654.765 153.828C654.76 153.865 654.755 153.899 654.744 153.934C655.086 153.993 655.433 154.044 655.775 154.103C655.777 154.138 655.775 154.17 655.767 154.202L653.067 154.025C653.064 154.085 653.056 154.144 653.044 154.202C654.501 154.555 655.995 154.779 657.504 154.875C656.163 155.309 654.744 154.699 653.248 155.093C654.972 156.088 655.951 155.066 657.595 156.074C658.014 156.182 658.449 156.225 658.887 156.205C658.659 156.37 658.522 156.468 658.325 156.617C658.589 156.656 658.77 156.684 658.954 156.722C658.871 156.8 657.999 156.881 657.587 157.03C658.757 157.756 659.166 156.638 660.432 157.932C659.79 158.487 656.608 158.363 655.775 158.288C655.865 158.432 655.912 158.51 656.041 158.718C655.547 158.471 651.444 157.639 650.488 158.528C654.297 158.994 658.711 159.078 661.328 160.139C660.707 160.178 660.093 160.213 659.461 160.252C659.464 160.231 659.461 160.21 659.454 160.192C659.57 160.16 659.687 160.135 659.803 160.114C657.634 159.711 657.232 160.231 654.449 159.956C654.926 160.389 655.48 160.139 655.928 160.396C653.466 160.265 650.993 160.304 648.539 160.513C649.518 160.591 650.488 160.682 651.451 160.76V160.847C649.738 160.866 648.016 160.88 646.302 160.886C646.302 160.944 646.287 160.996 646.287 161.042C647.281 161.081 648.27 161.187 649.246 161.356C647.379 161.743 647.804 161.475 644.806 161.338C639.641 161.095 641.963 162.477 637.88 161.546C640.203 161.331 639.656 161.906 641.075 161.356C641.067 161.292 641.052 161.221 641.044 161.155C639.247 161.171 633.013 160.955 630.347 161.056C631.91 161.285 633.5 161.354 635.082 161.26C634.921 161.867 635.672 161.475 636.933 161.764C634.543 161.75 632.622 161.652 632.622 161.652C633.811 161.934 635.025 162.131 636.249 162.241C635.385 162.234 634.52 162.216 633.648 162.202V162.319C636.431 162.635 639.193 163.086 641.916 163.675C641.598 163.687 641.28 163.694 640.961 163.694C640.961 163.753 640.953 163.811 640.953 163.87C642.986 164.198 648.904 164.322 650.351 164.814C650.336 164.867 650.33 164.913 650.312 164.965C646.136 164.441 641.904 164.338 637.697 164.656C638.222 164.876 638.81 164.959 639.39 164.892C639.952 164.885 640.003 165.639 640.656 165.417C640.612 165.325 640.542 165.22 640.451 165.062C640.824 165.069 641.186 165.069 641.611 165.082C640.816 166.208 639.563 165.928 638.455 166.162C638.867 166.306 639.291 166.457 639.882 166.661C638.046 166.563 622.389 165.749 620.812 166.542C621.275 166.68 621.594 166.771 621.928 166.87C621.516 167.243 621.047 167.053 620.561 166.968C620.47 167.145 620.387 167.31 620.289 167.505C617.705 167.271 615.106 167.218 612.512 167.349C612.672 167.427 612.823 167.505 613.006 167.596C612.892 167.681 608.963 167.642 608.802 167.617C608.742 167.713 608.675 167.809 608.598 167.897C610.055 168.304 609.729 168.165 609.964 168.499C608.688 168.408 607.497 168.323 606.247 168.231C606.299 168.382 606.322 168.46 606.368 168.566C604.543 168.373 602.695 168.609 601.012 169.246C601.491 169.324 601.747 169.363 602.105 169.411C601.649 169.489 598.988 169.365 598.599 169.803C598.009 169.542 597.439 169.934 596.834 169.874C598.501 170.2 600.186 170.445 601.885 170.608C601.885 170.66 601.877 170.706 601.877 170.759C587.268 170.491 591.635 170.353 587.586 171.545C591.796 172.313 604.448 172.26 605.002 172.789C604.341 173.575 601.362 172.959 601.043 172.86C599.58 172.753 597.991 173.142 596.393 172.986C596.461 173.632 596.992 173.312 597.302 173.456C597.266 173.548 597.235 173.632 597.144 173.83C600.611 173.903 598.949 172.86 601.201 173.869C597.784 176.295 593.763 176.14 587.001 175.826C584.008 176.011 581 175.908 578.036 175.518C575.411 174.785 575.1 176.279 574.051 175.649C572.754 174.87 568.674 176.004 564.395 175.046C564.623 174.95 564.744 174.904 564.972 174.806C563.691 174.027 562.166 174.57 560.76 173.967C561.117 173.889 561.33 173.843 561.625 173.77C561.078 173.763 560.615 173.752 560.162 173.745C559.828 172.487 564.312 173.28 578.717 172.356C578.163 172.351 577.42 171.87 578.126 171.662C578.877 172.141 579.866 171.316 580.438 172.035C580.461 171.996 580.487 171.96 580.516 171.925C580.379 171.886 580.257 171.84 580.12 171.799C580.438 171.375 581.153 171.866 581.971 172.331C584.775 169.457 561.842 171.976 561.648 170.431C557.985 170.818 547.394 168.974 532.769 169.423C532.769 169.368 532.766 169.31 532.761 169.253C533.724 169.214 534.68 169.168 535.63 169.116C533.439 168.671 531.182 168.55 528.945 168.756C528.945 168.703 528.937 168.657 528.937 168.605C530.242 168.382 530.53 168.449 530.781 167.899C529.085 167.603 527.348 167.512 525.624 167.624C525.864 167.498 525.965 167.427 526.116 167.349C525.942 167.131 525.872 167.191 524.523 167.113C524.591 167.046 524.645 166.987 524.751 166.87C524.547 166.792 524.35 166.712 524.143 166.62C525.875 166.563 527.573 166.517 529.357 166.457C528.583 165.357 499.308 166.661 498.018 167.243C497.488 166.87 496.949 167.053 496.403 167.262C496.936 167.367 497.49 167.356 498.018 167.23C498.168 167.269 498.329 167.301 498.495 167.34C498.005 167.587 497.449 167.713 496.882 167.709C496.315 167.702 495.761 167.564 495.279 167.308C495.256 167.308 472.87 169.017 472.712 168.951C472.3 169.068 438.528 172.544 438.339 172.585C438.316 172.72 438.293 172.84 438.269 172.956C434.396 174.006 429.819 172.322 428.121 174.233C427.846 173.685 427.422 173.488 426.824 173.749C426.345 173.958 420.823 173.704 420.359 174.398C420.504 174.535 420.642 174.666 420.838 174.829C420.025 175.138 419.699 174.588 419.29 174.215C419.044 174.32 418.767 174.364 418.495 174.341C418.221 174.318 417.96 174.228 417.742 174.084C416.968 174.554 413.517 173.513 412.212 174.567C409.3 174.116 409.665 174.056 408.989 174.634C409.214 174.698 409.416 174.815 409.574 174.969C409.735 175.122 409.843 175.31 409.893 175.512C409.437 176.02 408.117 175.752 408.844 175.195C409.028 175.315 409.194 175.42 409.367 175.537C409.331 175.156 409.08 175.184 408.821 175.202C408.795 175.026 408.704 174.859 408.567 174.726C408.43 174.59 408.249 174.496 408.049 174.451L408.057 174.437C403.778 174.568 406.234 174.824 403.451 174.652L403.2 175.301C402.913 175.099 402.685 174.941 402.449 174.771C402.838 173.919 403.77 174.732 404.257 174.201C404.073 173.612 400.629 173.946 400.13 174.134C400.448 174.26 400.637 174.338 400.834 174.409C400.163 175.289 393.639 175.725 392.254 175.04C392.855 174.455 397.088 174.684 398.613 174.254C398.315 173.573 398.294 173.566 397.383 173.704C397.466 173.809 397.518 173.901 397.588 174.006C397.062 174.056 396.557 174.098 396.055 174.144C395.972 173.919 395.897 173.704 395.812 173.474C396.146 173.435 396.511 173.41 396.883 173.369C395.902 172.924 394.88 173.351 393.87 173.083C394.758 172.762 395.379 172.984 396.016 172.533L395.995 172.544C398.134 172.544 397.883 172.709 398.626 171.602C399.151 171.701 399.172 172.099 399.34 172.388C399.682 172.329 399.682 172.315 399.749 171.982C400.614 172.099 401.266 171.306 402.312 171.588C401.66 169.835 400.681 171.602 396.692 171.352C397.95 170.39 397.313 170.718 399.058 170.11C399.105 170.346 399.128 170.502 399.172 170.706C401.07 170.548 402.972 170.39 404.839 170.248C405.067 169.645 404.461 169.579 404.269 169.233C404.383 169.109 404.521 168.971 404.725 168.76C402.382 167.635 403.822 169.31 402.39 168.937C402.403 168.742 402.411 168.577 402.426 168.421C401.455 168.401 400.469 167.773 399.423 168.545C399.855 168.662 400.182 168.754 400.523 168.838V169.017C395.395 169.469 394.97 168.637 394.97 168.637C393.997 169.049 392.912 169.233 391.83 169.166C392.027 168.997 392.073 168.951 392.117 168.919C388.405 169.388 384.659 169.643 380.905 169.677C377.143 170.608 378.72 170.894 374.526 169.952C374.306 169.606 374.117 169.324 373.933 169.029C374.251 168.644 378.28 169.482 378.645 169.349C378.303 168.852 377.56 169.233 377.241 168.774C377.423 168.288 377.984 168.584 378.311 168.309C378.075 167.78 377.583 168.151 377.166 168.034C377.104 167.858 377.037 167.635 376.959 167.367C377.143 167.301 377.332 167.23 377.513 167.17C376.69 165.635 372.514 167.207 374.023 164.61L374.003 164.59C375.08 165.717 375.489 164.61 376.664 164.674C378.039 164.773 377.788 163.707 377.788 163.707C378.805 164.67 379.698 163.824 380.519 164.04C382.906 164.688 384.835 163.634 385.653 164.06C385.138 164.649 384.364 164.198 383.652 164.61C384.646 164.844 385.694 164.839 386.686 164.597C386.662 164.512 386.631 164.399 386.595 164.262C386.753 164.257 387.027 164.205 387.051 164.257C387.323 164.807 387.46 164.399 391.524 164.177C391.913 164.159 391.988 163.969 392.05 163.595C392.777 164.257 393.104 163.909 394.258 164.303C393.665 164.166 393.044 164.177 392.459 164.335C392.462 164.388 392.469 164.441 392.482 164.491C393.075 164.434 393.665 164.361 394.258 164.303C395.214 163.923 396.267 163.772 397.316 163.863C397.512 163.891 398.605 164.734 399.765 163.98C399.635 163.785 399.498 163.588 399.34 163.332C391.511 163.712 393.834 163.948 392.027 163.261C391.185 163.726 389.487 162.809 388.726 163.613C385.49 162.921 386.963 163.964 382.637 163.51C382.72 163.439 382.808 163.373 382.901 163.313C382.657 163.222 382.455 163.144 382.248 163.063C382.298 162.442 383.377 162.271 383.789 161.585C382.72 161.368 381.736 161.753 380.625 161.611C381.239 161.329 381.93 161.505 382.673 161.258C382.197 160.944 380.397 161.237 380.04 161.297C380.04 161.23 380.032 161.164 380.019 161.1C382.013 160.916 382.704 160.916 382.877 160.543C383.266 159.706 384.319 160.602 385.14 159.647C384.705 159.45 384.744 159.601 382.629 159.981C380.837 161.198 375.512 161.054 373.842 160.976C374.011 160.151 374.777 160.687 375.165 160.394C374.489 159.922 374.489 159.922 374.329 159.227C371.908 159.09 374.026 157.754 370.588 158.036C370.407 157.8 370.226 157.577 370.029 157.341C370.862 156.308 370.953 156.262 372.411 156.065C372.411 155.909 372.411 155.751 372.418 155.613C374.694 155.675 376.946 155.187 378.919 154.204C378.129 153.4 377.697 153.924 376.46 153.551C378.098 153.59 380.035 153.047 380.353 152.339C379.515 152.215 378.098 152.861 377.764 152.045C377.834 152.233 377.964 152.352 378.083 152.162C377.85 152.038 377.94 152.064 377.744 152.064C378.054 152.07 378.362 152.022 378.652 151.924C378.942 151.825 379.206 151.676 379.426 151.488C377.964 151.016 378.515 152.004 376.809 150.826C379.628 150.184 382.766 151.064 385.958 149.884C385.314 149.405 384.677 149.522 384.017 149.293C384.752 148.697 407.48 147.872 408.533 147.558C406.623 146.623 406.91 147.075 404.391 147.075C403.451 147.088 404.179 146.577 402.952 146.912C403.022 147.001 403.097 147.088 403.18 147.173C402.253 147.324 394.833 148.333 393.779 147.762C394.574 147.343 395.403 147.696 396.2 147.421C396.146 147.283 396.086 147.153 396.016 146.99C396.397 147.036 396.723 147.402 397.124 147.127L397.101 147.114C398.033 147.409 397.375 147.421 399.514 147.23C399.604 146.085 406.03 146.761 406.568 146.007C405.256 145.555 403.791 146.341 400.477 145.929C401.927 145.498 401.401 145.929 404.87 145.594C405.983 145.484 405.963 144.776 407.433 144.875C414.358 145.34 409.344 144.206 415.679 143.532C417.584 143.342 419.508 143.337 421.413 143.518C421.594 143.814 421.594 143.814 421.998 143.669C421.747 143.612 421.574 143.571 421.405 143.532" fill="#3B8D99"/>
<path d="M189.407 32.8075C172.089 34.4098 181.505 58.7897 196.109 49.7995L200.76 58.9299C187.523 67.5967 164.841 58.8657 165.341 42.2957C164.801 25.8164 187.584 16.4117 200.76 25.6076L196.109 34.6005C194.133 33.3335 191.784 32.7052 189.407 32.8075Z" fill="black"/>
<path d="M208.125 56.5016C184.675 35.5738 222.839 10.3669 244.305 27.8779C268.446 49.0583 229.468 73.823 208.125 56.5016ZM219.351 35.8176C210.169 43.9591 224.158 56.6792 233.385 48.5055C242.322 40.4189 228.455 27.641 219.351 35.8176Z" fill="black"/>
<path d="M251.935 62.3333V23.1825H267.063V27.2994H267.253C275.122 19.5313 289.486 20.4192 295.096 29.2014C304.695 17.0887 327.224 20.9243 326.719 36.5265V62.3333H311.591C309.978 56.0735 316.811 32.1821 303.901 32.8638C302.984 32.8253 302.068 32.9555 301.211 33.2466C300.354 33.5378 299.573 33.9837 298.917 34.5564C298.26 35.129 297.743 35.8162 297.398 36.5754C297.051 37.3344 296.886 38.1487 296.907 38.9678V62.3333H281.779C280.166 56.0738 286.999 32.1818 274.089 32.8638C262.25 31.7682 268.541 56.7659 267.063 62.3333H251.935Z" fill="black"/>
<path d="M375.457 27.8459C394.453 44.7511 367.014 74.6492 345.679 57.6616V80.6667H330.664V23.1394H345.521V27.458H345.679C353.054 19.8126 368.217 20.4364 375.457 27.8459ZM362.681 48.6642C372.165 40.4012 357.731 27.4374 348.201 35.7919C338.959 43.9795 353.253 56.9154 362.681 48.6642Z" fill="black"/>
<path d="M384.258 56.5402C365.312 39.7877 392.73 10.1825 414.051 27.0047V23.4121H429.076V61.2298H414.242V56.9516H414.051C406.678 64.5098 391.502 63.8631 384.258 56.5402ZM397.041 35.945C387.541 44.1271 402.014 56.9108 411.56 48.6962C420.807 40.5695 406.46 27.7275 397.041 35.945Z" fill="black"/>
<path d="M436.949 62.3333V23.1752H450.807V27.2928H450.981C452.812 25.4314 455.05 23.9952 457.526 23.091C460.003 22.187 462.656 21.8379 465.289 22.0695C467.924 22.3013 470.47 23.1081 472.741 24.43C475.011 25.7519 476.948 27.5552 478.409 29.706C481.611 33.8777 479.542 57.24 480.096 62.3333H466.237C464.861 55.8634 470.87 32.3518 459.046 32.5461C446.142 32.286 452.039 55.3128 450.807 62.3333H436.949Z" fill="black"/>
<path d="M486.558 2.41563C493.516 -5.02899 504.889 6.46588 497.565 13.5182C490.576 20.9106 479.234 9.45188 486.558 2.41563ZM485.286 23.8666V62.3333H498.45V23.8666H485.286Z" fill="black"/>
<path d="M511.234 56.5016C487.784 35.5738 525.949 10.3669 547.413 27.8779C571.556 49.0583 532.576 73.823 511.234 56.5016ZM522.459 35.8176C513.279 43.9591 527.269 56.6792 536.493 48.5055C545.433 40.4189 531.563 27.641 522.459 35.8176Z" fill="black"/>
<path d="M555.043 62.3333V23.1752H570.161V27.2928H570.351C572.348 25.4314 574.789 23.9952 577.491 23.091C580.193 22.187 583.087 21.8379 585.962 22.0695C588.834 22.3013 591.612 23.1081 594.089 24.43C596.565 25.7519 598.679 27.5552 600.272 29.706C603.765 33.8777 601.508 57.24 602.112 62.3333H586.994C585.493 55.8634 592.048 32.3518 579.149 32.5461C565.072 32.286 571.505 55.3128 570.161 62.3333H555.043Z" fill="black"/>
<path d="M193.214 132H183.568L161.396 95.3333H177.845L187.912 115.116L197.829 95.3333H207.657L217.544 115.116L227.642 95.3333H244.062L221.919 132H212.241L202.743 113.041L193.214 132Z" fill="black"/>
<path d="M287.107 117.22H255.694C255.686 126.774 270.296 127.439 275.611 120.91L286.418 125.718C276.134 142.878 239.199 136.805 240.143 115.432C239.81 88.2384 291.417 88.4512 287.107 117.22ZM256.101 109.871H272.564C271.99 101.515 256.297 101.588 256.101 109.871Z" fill="black"/>
<path d="M332.645 100.558C350.367 117.542 324.255 148.507 305.159 129.914H305.012V134.272H291.299V69.6667H305.159V99.4141C312.179 92.5926 326.133 93.0741 332.645 100.558ZM320.969 121.536C329.435 113.294 316.286 100.118 307.546 108.521C298.822 116.841 312.259 129.834 320.969 121.536Z" fill="black"/>
<path d="M364.088 129.741C346.597 112.608 371.906 82.3329 391.59 99.5371V69.6667H405.457V134.539H391.766V130.164H391.59C384.781 137.892 370.772 137.232 364.088 129.741ZM375.885 108.679C367.118 117.048 380.479 130.122 389.288 121.721C397.826 113.408 384.58 100.276 375.885 108.679Z" fill="black"/>
<path d="M456.376 117.22H424.962C424.954 126.774 439.563 127.439 444.878 120.91L455.684 125.718C445.401 142.878 408.468 136.805 409.411 115.432C409.079 88.2384 460.683 88.4512 456.376 117.22ZM425.369 109.871H441.831C441.257 101.515 425.565 101.588 425.369 109.871Z" fill="black"/>
<path d="M477.272 95.3333C482.003 95.3358 486.672 96.3552 490.914 98.3073L486.339 106.902C482.732 104.183 468.631 102.732 474.408 108.83C478.9 110.712 483.513 111.138 487.372 114.144C504.436 131.373 470.452 142.874 456.631 130.45L462.33 121.47C464.769 124.946 480.817 129.081 475.68 121.167C454.701 116.701 453.379 95.3984 477.272 95.3333Z" fill="black"/>
<path d="M495.024 72.0829C503.721 64.6371 517.937 76.1323 508.782 83.1841C500.046 90.5752 485.869 79.1176 495.024 72.0829ZM493.434 93.5312V132H509.888V93.5312H493.434Z" fill="black"/>
<path d="M513 143.123L525.234 137.942C530.991 146.451 550.599 143.21 547.508 131.24C535.044 141.007 509.97 131.368 511.841 115.259C510.53 99.2897 533.721 88.9263 547.256 99.8477H547.508V96.5095H562.44C560.556 107.051 567.922 142.189 555.446 149.011C544.625 157.271 517.446 155.252 513 143.123ZM530.598 108.91C521.155 117.006 535.544 129.654 545.03 121.527C554.221 113.485 539.96 100.781 530.598 108.91Z" fill="black"/>
<path d="M566.853 132V96.4014H581.97V100.147H582.163C584.16 98.4525 586.599 97.1468 589.3 96.3268C592.002 95.5046 594.896 95.1861 597.771 95.3962C600.643 95.6085 603.421 96.3404 605.9 97.5422C608.377 98.7439 610.488 100.384 612.081 102.34C615.574 106.133 613.317 127.371 613.924 132H598.804C597.305 126.12 603.857 104.744 590.961 104.922C576.884 104.685 583.314 125.619 581.97 132H566.853Z" fill="black"/>
<path d="M637.025 95.3333C642.282 95.3358 647.47 96.3552 652.184 98.3073L647.097 106.902C643.091 104.183 627.423 102.732 633.842 108.83C638.831 110.712 643.959 111.138 648.248 114.144C667.205 131.373 629.447 142.874 614.09 130.45L620.422 121.47C623.129 124.946 640.964 129.081 635.256 121.167C611.943 116.701 610.476 95.3984 637.025 95.3333Z" fill="black"/>
<path d="M663.262 117.337C676.417 117.052 676.442 135.943 663.262 135.664C650.174 135.896 650.199 117.097 663.262 117.337Z" fill="black"/>
</svg>
